<?xml version="1.0" encoding="utf-8"?>
<!-- Generator: Adobe Illustrator 21.1.0, SVG Export Plug-In . SVG Version: 6.00 Build 0)  -->
<svg version="1.1" id="Layer_1" xmlns="http://www.w3.org/2000/svg" xmlns:xlink="http://www.w3.org/1999/xlink" x="0px" y="0px"
	 viewBox="0 0 187.5 49.5" style="enable-background:new 0 0 187.5 49.5;" xml:space="preserve">
<style type="text/css">
	.st0{fill-rule:evenodd;clip-rule:evenodd;fill:#ED174C;}
	.st1{fill-rule:evenodd;clip-rule:evenodd;}
</style>
<g>
	<polygon class="st0" points="32,48.9 25.7,37.6 48.6,37.6 37.1,13.2 20.2,48.9 0,48.9 26.4,0.7 47.7,0.7 74,48.9 32,48.9 	"/>
	<path class="st0" d="M74.1,20.9h25.2c6.3,0,8.9-0.4,8.9-4.9c0-4.3-2-4.8-8.6-4.8H74L68.3,0.7h35.5c16.8,0,23,7.3,23,15.1
		c0,7.5-5.8,15.8-24.2,15.8h-8.4v17.3H74L74.1,20.9L74.1,20.9L74.1,20.9z"/>
	<path class="st0" d="M179.5,45.3c-6.1,2.8-13.6,4.2-21.6,4.2c-24.2,0-32.5-13.5-32.5-24.6c0-14.1,12.3-24.9,33.5-24.9
		c7.7,0,14.4,1.2,20.1,3.3v14c-5.9-3.1-10.9-4.5-16.9-4.5c-10.1,0-18.4,4.6-18.4,11.9c0,7.2,8.5,11.9,18.6,11.9
		c5.9,0,10.6-1.2,17.2-4.2V45.3L179.5,45.3z"/>
	<path class="st1" d="M180.9,6.7c0-1.8,1.4-3.1,3.1-3.1c1.7,0,3.1,1.3,3.1,3.1c0,1.8-1.4,3.1-3.1,3.1C182.3,9.8,180.9,8.5,180.9,6.7
		L180.9,6.7z M184,9.3c1.4,0,2.5-1.1,2.5-2.6c0-1.5-1.1-2.6-2.5-2.6c-1.4,0-2.5,1.1-2.5,2.6C181.5,8.2,182.6,9.3,184,9.3L184,9.3z
		 M183.3,8.5h-0.5V4.9h1.3c0.8,0,1.3,0.3,1.3,1c0,0.6-0.4,0.9-0.9,1l1,1.6h-0.6l-0.9-1.5h-0.6V8.5l0.6-2c0.5,0,0.9,0,0.9-0.6
		c0-0.4-0.4-0.5-0.8-0.5h-0.7v1.1h0.6L183.3,8.5L183.3,8.5z"/>
</g>
</svg>
