<?xml version="1.0" encoding="utf-8"?>
<!-- Generator: Adobe Illustrator 21.1.0, SVG Export Plug-In . SVG Version: 6.00 Build 0)  -->
<svg version="1.1" id="Layer_1" xmlns="http://www.w3.org/2000/svg" xmlns:xlink="http://www.w3.org/1999/xlink" x="0px" y="0px"
	 viewBox="0 0 100 56.821" enable-background="new 0 0 100 56.821" xml:space="preserve">
<g>
	<path fill="#2C7DB9" d="M25.595,16.951c-0.439-2.367-1.542-4.64-3.268-6.338c-1.719-1.737-4.024-2.831-6.418-3.255
		c-2.645-0.465-5.403-0.244-7.947,0.615c-0.002-2.657,0-5.315,0-7.972C5.308,0,2.654,0,0.001,0.001
		c0,6.984-0.001,13.97,0.001,20.954c0.044,1.063,0.197,2.125,0.476,3.153c0.626,2.379,1.993,4.569,3.923,6.104
		c1.944,1.565,4.385,2.441,6.858,2.672c2.071,0.189,4.189,0.011,6.171-0.644c2.167-0.701,4.164-1.983,5.607-3.756
		c1.306-1.58,2.137-3.52,2.522-5.525C25.931,20.982,25.97,18.932,25.595,16.951z M17.894,20.232
		c-0.016,1.711-0.322,3.471-1.201,4.962c-0.604,1.026-1.577,1.885-2.761,2.144c-1.128,0.234-2.365,0.06-3.327-0.597
		c-1.018-0.678-1.683-1.771-2.075-2.908c-0.579-1.637-0.649-3.403-0.525-5.12c0.157-1.567,0.563-3.176,1.535-4.447
		c0.679-0.904,1.728-1.522,2.855-1.647c0.971-0.124,1.997,0.055,2.82,0.599c0.898,0.583,1.521,1.508,1.92,2.486
		C17.722,17.133,17.92,18.694,17.894,20.232z"/>
	<path fill="#2C7DB9" d="M51.856,0.001c2.563-0.003,5.125,0,7.687-0.001c0.008,5.924-0.008,11.85,0.009,17.774
		c0.141-0.091,0.224-0.241,0.313-0.378c2.135-3.241,4.285-6.473,6.414-9.718c3.334-0.013,6.668-0.006,10.002-0.003
		c-3.239,3.871-6.488,7.734-9.729,11.603c-0.069,0.067-0.115,0.168-0.021,0.237c3.603,4.281,7.231,8.543,10.83,12.828
		c-3.262,0.006-6.523,0.001-9.786,0.003c-0.095,0.012-0.168-0.022-0.219-0.099c-2.603-3.779-5.191-7.568-7.806-11.34
		c-0.019,3.806,0.01,7.612-0.015,11.417c-1.075,0.049-2.164,0.007-3.245,0.022c-1.477,0-2.954,0-4.432,0
		C51.853,21.565,51.857,10.784,51.856,0.001L51.856,0.001z"/>
	<path fill="#2C7DB9" d="M50.242,22.505c0.499-3.083,0.291-6.344-0.945-9.236c-0.54-1.239-1.287-2.398-2.259-3.341
		c-1.026-1.024-2.309-1.773-3.68-2.227c-1.66-0.537-3.431-0.674-5.162-0.524c-2.096,0.166-4.171,0.835-5.898,2.047
		c-1.861,1.284-3.272,3.155-4.15,5.227c-0.792,1.873-1.194,3.912-1.17,5.945c-0.007,2.062,0.36,4.148,1.242,6.021
		c0.632,1.339,1.537,2.554,2.667,3.514c1.031,0.888,2.237,1.561,3.513,2.027c1.769,0.658,3.66,0.904,5.538,0.945
		c3.118,0,6.285-0.355,9.2-1.517c-0.329-1.737-0.676-3.471-1.01-5.207c-2.485,0.783-5.107,1.101-7.708,0.979
		c-1.656-0.136-3.379-0.578-4.646-1.711c-0.853-0.74-1.369-1.82-1.467-2.94C39.618,22.498,44.93,22.504,50.242,22.505z
		 M34.27,17.229c0.148-1.466,0.743-2.942,1.857-3.939c0.813-0.737,1.929-1.094,3.017-1.049c1.1,0.001,2.229,0.418,2.964,1.258
		c0.895,1.013,1.243,2.405,1.254,3.73C40.331,17.229,37.301,17.23,34.27,17.229z"/>
	<path fill="#2C7DB9" d="M99.916,18.154c-0.186-1.901-0.767-3.773-1.761-5.409c-1.326-2.21-3.444-3.908-5.863-4.781
		c-1.96-0.727-4.082-0.94-6.159-0.804c-0.845,0.071-1.688,0.177-2.513,0.376c-2.219,0.515-4.336,1.592-5.937,3.229
		c-1.776,1.762-2.872,4.133-3.295,6.582c-0.516,2.981-0.271,6.16,1.037,8.916c0.88,1.85,2.269,3.456,3.985,4.578
		c1.79,1.183,3.894,1.85,6.022,2.049c2.053,0.18,4.149,0.008,6.111-0.637c2.614-0.826,4.97-2.533,6.438-4.863
		C99.714,24.67,100.223,21.321,99.916,18.154z M91.968,21.596c-0.175,1.425-0.566,2.868-1.421,4.043
		c-0.624,0.871-1.559,1.543-2.624,1.732c-0.959,0.151-1.981,0.041-2.839-0.434c-0.916-0.496-1.603-1.338-2.054-2.263
		c-0.539-1.11-0.793-2.337-0.892-3.562c-0.086-1.486-0.023-3,0.391-4.439c0.313-1.103,0.828-2.186,1.679-2.976
		c0.644-0.609,1.493-0.986,2.374-1.084c0.991-0.121,2.04,0.078,2.868,0.655c0.94,0.641,1.557,1.655,1.945,2.706
		C92.043,17.766,92.164,19.713,91.968,21.596z"/>
	<path fill="#2C7DB9" d="M22.812,45.88c24.719-3.478,49.44-6.938,74.158-10.423c0.019,2.59,0.012,5.18,0.003,7.768
		c-7.052,0.972-14.099,1.977-21.149,2.96c-25.273,3.543-50.546,7.099-75.821,10.635c-0.001-2.583-0.009-5.165,0.004-7.748
		C7.611,48.027,15.21,46.94,22.812,45.88L22.812,45.88z"/>
</g>
</svg>
