<?xml version="1.0" encoding="utf-8"?>
<!-- Generator: Adobe Illustrator 21.1.0, SVG Export Plug-In . SVG Version: 6.00 Build 0)  -->
<svg version="1.1" id="Layer_1" xmlns="http://www.w3.org/2000/svg" xmlns:xlink="http://www.w3.org/1999/xlink" x="0px" y="0px"
	 viewBox="0 0 182.825 41.129" enable-background="new 0 0 182.825 41.129" xml:space="preserve">
<g>
	<path fill-rule="evenodd" clip-rule="evenodd" fill="#0073BC" d="M181.947,7.488c-10.502,0-16.09,5.89-16.306,13.525
		c-1.509-8.306-8.678-13.73-16.839-13.73c-8.12,0-15.049,5.403-16.56,13.611c-0.028-7.297-5.728-13.596-13.141-13.596
		c-3.229,0-6.031,1.24-8.269,3.405V0.056h-7.899v23.712c0,0.778-0.028,1.281-0.139,2.434c-0.479,4.926-3.795,7.357-7.404,7.357
		c-3.751,0-7.138-1.773-7.24-7.329c-0.017-0.96-0.045-1.358-0.045-2.039v-8.877h12.297V7.858H88.105V0.056h-8.008v20.878
		c-1.521-7.772-8.368-13.638-16.59-13.638c-5.296,0-10.022,2.437-13.122,6.247V7.488h-0.878c-10.317,0-15.892,5.685-16.291,13.124
		c-1.515-7.538-7.749-13.124-15.625-13.124c-4.123,0-7.344,1.498-9.862,4.016V0H0v19.995c0,1.476,0.043,2.867,0.061,4.199
		c0.111,9.251,6.584,16.841,16.611,16.841c8.652,0,14.952-5.631,16.521-13.135v12.344h7.922V24.834c0-0.703,0.04-1.483,0.062-2.203
		c0.148-4.696,3.222-7.493,8.112-7.575c-1.698,2.635-2.686,5.769-2.686,9.137c0,9.334,7.568,16.897,16.904,16.897
		c8.222,0,15.069-5.863,16.59-13.636v0.021c0,8.118,6.519,13.653,14.37,13.653c3.311,0,6.234-1.418,8.465-3.738v2.849h7.899V23.469
		c0.004-0.398,0.019-0.72,0.029-1.029c0.2-5.38,3.354-7.721,6.818-7.721c3.435,0,6.405,2.35,6.524,7.695
		c0.027,0.465,0.033,0.775,0.033,1.297v16.531l8.007,0.004V27.7c1.506,8.1,8.372,13.329,16.563,13.329
		c9.289,0,14.537-5.945,15.944-12.163h-7.746c-0.678,2.211-3.428,5.605-8.202,5.605c-4.306,0-7.98-2.941-8.908-7.744h25.737v13.516
		h7.923V24.834c0-0.703,0.041-1.483,0.066-2.203c0.148-4.767,3.309-7.584,8.328-7.584h0.878v-7.56H181.947L181.947,7.488z
		 M16.672,33.428c-5.215,0-9.232-4.08-9.232-9.235c0-5.154,3.991-9.232,9.232-9.232c5.241,0,9.234,4.055,9.234,9.232
		C25.906,29.372,21.888,33.428,16.672,33.428L16.672,33.428z M63.507,33.428c-5.215,0-9.231-4.08-9.231-9.235
		c0-5.154,3.991-9.232,9.231-9.232c5.242,0,9.234,4.055,9.234,9.232C72.741,29.372,68.723,33.428,63.507,33.428L63.507,33.428z
		 M140.242,20.484c1.302-4.036,4.662-6.53,8.56-6.53c5.01,0,8.012,4.02,8.582,6.53H140.242L140.242,20.484z"/>
</g>
</svg>
