<?xml version="1.0" encoding="utf-8"?>
<!-- Generator: Adobe Illustrator 21.1.0, SVG Export Plug-In . SVG Version: 6.00 Build 0)  -->
<svg version="1.1" id="Layer_1" xmlns="http://www.w3.org/2000/svg" xmlns:xlink="http://www.w3.org/1999/xlink" x="0px" y="0px"
	 viewBox="0 0 187.087 39.803" enable-background="new 0 0 187.087 39.803" xml:space="preserve">
<g>
	<path fill-rule="evenodd" clip-rule="evenodd" fill="#ED1C24" d="M14.748,28.6c2.996,4.911,8.49,8.206,14.604,8.206
		c9.034,0,14.007-7.796,14.007-7.796l0,0l0.64,2.077l0,0c-4.183,5.44-11.654,8.717-20.014,8.717
		c-9.625,0-17.925-4.591-21.745-11.212C0.803,26.097,0,23.311,0,20.378C0,9.649,10.738,0.953,23.985,0.953
		c9.36,0,16.896,4.009,20.852,9.819l0,0l-15.705,9.405l8.963-13.763l0,0c-2.564-1.613-5.71-3.123-8.963-3.123
		c-9.195,0-16.768,7.673-16.768,16.868C12.364,23.24,13.238,26.134,14.748,28.6L14.748,28.6L14.748,28.6L14.748,28.6L14.748,28.6z"
		/>
	<path fill-rule="evenodd" clip-rule="evenodd" fill="#ED1C24" d="M56.801,28.594c-0.046,0.309-0.07,0.626-0.07,0.948
		c0,3.49,2.83,6.32,6.32,6.32c3.491,0,6.32-2.83,6.32-6.32c0-0.322-0.024-0.639-0.071-0.951c-0.457-3.037-3.081-5.369-6.25-5.369
		C59.882,23.222,57.258,25.553,56.801,28.594L56.801,28.594L56.801,28.594L56.801,28.594L56.801,28.594z M80.253,28.591
		l3.141,10.581H72.376l-2.167-7.246l0,0c-1.451,4.175-6.347,7.246-12.163,7.246c-6.959,0-12.6-4.395-12.6-9.818
		c0-0.254,0.012-0.506,0.037-0.763c0.495-5.061,5.931-9.055,12.564-9.055c3.765,0,7.144,1.286,9.453,3.326l0,0l-3.002-10.035H51.851
		l0,0c0,0,2.104-1.262,11.435-4.657c9.331-3.395,12.288,4.657,12.288,4.657l0,0L80.253,28.591L80.253,28.591L80.253,28.591
		L80.253,28.591z"/>
	<path fill-rule="evenodd" clip-rule="evenodd" fill="#ED1C24" d="M115.483,28.591v10.581h-11.338V28.591V15.924l0,0
		c0-1.71-1.386-3.097-3.097-3.097c-1.314,0-2.437,0.818-2.887,1.973l0,0v13.791v10.581H87.033V28.591V12.827h-6.49l0,0
		c0,0,9.028-5.469,12.159-5.469c2.967,0,5.162,2.28,5.437,5.183c4.367-2.355,8.696-5.183,11.674-5.183
		c3.078,0,5.583,2.453,5.669,5.511l0,0V28.591L115.483,28.591L115.483,28.591L115.483,28.591z"/>
	<path fill-rule="evenodd" clip-rule="evenodd" fill="#ED1C24" d="M132.949,28.591l1.577,5.215l0,0
		c0.031,2.235,1.867,4.023,4.122,4.023c2.305,0,4.173-1.868,4.173-4.173c0-0.163-0.01-0.324-0.027-0.482l0,0l-1.342-4.584
		l-4.71-16.099l0,0c-0.232-2.086-2-3.707-4.148-3.707c-2.126,0-4.154,1.987-4.412,4.042l0,0L132.949,28.591L132.949,28.591
		L132.949,28.591L132.949,28.591z M150.993,28.593c-2.147,6.511-8.28,11.21-15.511,11.21c-7.231,0-13.363-4.699-15.511-11.212
		c-0.531-1.608-0.818-3.328-0.818-5.116c0-9.018,7.311-16.328,16.329-16.328c9.018,0,16.329,7.31,16.329,16.328
		C151.811,25.262,151.523,26.983,150.993,28.593L150.993,28.593L150.993,28.593L150.993,28.593L150.993,28.593z"/>
	<path fill-rule="evenodd" clip-rule="evenodd" fill="#ED1C24" d="M169.765,28.591v10.581h-11.128V28.591V12.827h-6.223l0,0
		c0,0,8.761-5.469,11.892-5.469c2.967,0,5.163,2.28,5.438,5.183c4.367-2.355,8.696-5.183,11.674-5.183
		c3.079,0,5.584,2.453,5.669,5.511l0,0v15.722v10.581h-11.338V28.591V15.924l0,0c0-1.71-1.386-3.097-3.097-3.097
		c-1.314,0-2.437,0.818-2.887,1.973l0,0V28.591L169.765,28.591L169.765,28.591L169.765,28.591z"/>
</g>
</svg>
