<?xml version="1.0" encoding="utf-8"?>
<!-- Generator: Adobe Illustrator 21.1.0, SVG Export Plug-In . SVG Version: 6.00 Build 0)  -->
<svg version="1.1" id="Layer_1" xmlns="http://www.w3.org/2000/svg" xmlns:xlink="http://www.w3.org/1999/xlink" x="0px" y="0px"
	 viewBox="0 0 187.421 58.312" enable-background="new 0 0 187.421 58.312" xml:space="preserve">
<g>
	<path fill-rule="evenodd" clip-rule="evenodd" fill="#0083CA" d="M0.335,3.116h22.749l2.493,0.104l2.389,0.208l2.286,0.519
		l2.182,0.52l1.973,0.831l1.87,0.831l1.766,1.039l1.662,1.143l1.454,1.246l1.454,1.35l1.247,1.455l1.142,1.558l0.935,1.662
		l0.935,1.663L47.6,19.01l0.623,1.766L80.53,0l11.738,7.895L67.129,24.1l4.051,2.701L96.527,10.7l10.908,7.271L82.399,34.488
		l4.259,2.597l25.45-16.205V3.116h18.699V38.54h16.62V55.16h-35.319V38.124L80.633,58.38L48.535,36.67l-0.623,1.87l-0.623,1.766
		l-0.935,1.766l-0.935,1.766l-1.143,1.558l-1.247,1.558l-1.35,1.454l-1.558,1.247l-1.558,1.246l-1.87,1.039l-1.87,0.935
		l-2.078,0.831l-2.182,0.623l-2.285,0.416l-2.389,0.312l-2.597,0.104H0.335V3.116L0.335,3.116L0.335,3.116L0.335,3.116z
		 M18.202,19.426h4.882l2.182,0.208l1.766,0.623l1.558,0.935l1.35,1.247l0.935,1.454l0.727,1.558l0.415,1.766l0.104,1.766
		l-0.104,1.766l-0.415,1.766l-0.727,1.558l-1.039,1.454l-1.246,1.247l-1.558,0.935l-1.87,0.623l-2.078,0.208h-4.882V19.426
		L18.202,19.426L18.202,19.426L18.202,19.426z M152.102,3.116h18.802V38.54h16.517V55.16h-35.319V3.116L152.102,3.116L152.102,3.116
		L152.102,3.116z"/>
</g>
</svg>
