<?xml version="1.0" encoding="utf-8"?>
<!-- Generator: Adobe Illustrator 21.1.0, SVG Export Plug-In . SVG Version: 6.00 Build 0)  -->
<svg version="1.1" id="Layer_1" xmlns="http://www.w3.org/2000/svg" xmlns:xlink="http://www.w3.org/1999/xlink" x="0px" y="0px"
	 viewBox="0 0 405.356 108.554" enable-background="new 0 0 405.356 108.554" xml:space="preserve">
<path fill="#007BC1" d="M63.175,108.554l9.4-30.278h-34.91v-9.095h37.655l8.993-29.203H37.666V31.39h49.243l9.497-30.935H0v108.1
	H63.175 M372.3,68.401L351.906,0.454h-52.112v108.1h32.536V40.796h0.228l20.147,67.758h52.651V0.454h-32.822v67.947H372.3z
	 M266.971,80.825c12.027,0,21.479-9.556,21.479-21.707c0-12.145-8.923-22.888-20.944-22.888c-12.036,0-21.537,10.744-21.537,22.888
	C245.969,71.27,254.937,80.825,266.971,80.825z M249.682,0.454H149.46V31.39h31.633v77.164h50.913
	c-3.173-1.85-24.789-18.594-24.789-49.98C207.216,32.589,223.426,7.002,249.682,0.454z M113.336,79.894l-8.887,28.66h52.146
	l-8.338-28.66H113.336z M131.121,21.176l9.965,34.437h-20.362L131.121,21.176z"/>
</svg>
