<?xml version="1.0" encoding="utf-8"?>
<!-- Generator: Adobe Illustrator 21.1.0, SVG Export Plug-In . SVG Version: 6.00 Build 0)  -->
<svg version="1.1" id="ŚC_x201E__x5B_1" xmlns="http://www.w3.org/2000/svg" xmlns:xlink="http://www.w3.org/1999/xlink" x="0px"
	 y="0px" viewBox="0 0 283.465 68.25" enable-background="new 0 0 283.465 68.25" xml:space="preserve">
<g>
	<g>
		<g>
			<path fill="#034EA2" d="M196.223,0c-19.209,0-30.299,14.395-30.299,34.125s11.09,34.125,30.299,34.125
				s30.299-14.396,30.299-34.125S215.432,0,196.223,0z M196.223,56.769c-12.201,0-16.906-11.231-16.906-22.644
				c0-11.413,4.705-22.646,16.906-22.646c12.199,0,16.906,11.233,16.906,22.646C213.129,45.538,208.422,56.769,196.223,56.769z"/>
			<polygon fill="#034EA2" points="0,1.912 48.148,1.912 48.148,13.394 13.396,13.394 13.396,27.682 45.805,27.682 45.805,38.88 
				13.396,38.88 13.396,54.852 48.148,54.852 48.148,66.336 0,66.336 			"/>
			<path fill="#034EA2" d="M53.887,66.336h13.393V47.01h12.135c16.395,0,27.41-8.065,27.41-22.549
				c0-14.484-11.016-22.549-27.41-22.549H53.887V66.336z M79.414,35.531H67.279V13.393l-0.002-0.002h12.137
				c8.418,0,14.018,3.666,14.018,11.07S87.832,35.531,79.414,35.531z"/>
			<path fill="#034EA2" d="M245.342,1.912h-13.758v64.424h13.125V40.238c0-7.133-0.26-13.477-0.5-19.074
				c1.549,3.223,6.244,12.914,8.426,16.555l17.082,28.617h13.748V1.912h-13.123v25.447c0,7.135,0.26,14.129,0.498,19.726
				c-1.549-3.223-6.242-12.914-8.428-16.555L245.342,1.912z"/>
			<path fill="#034EA2" d="M122.032,45.02c0,8.658,7.202,12.03,14.861,12.03c5.011,0,13.126-1.458,13.126-8.11
				c0-7.018-9.928-8.344-19.498-10.896c-10.04-2.652-19.695-6.425-19.695-18.36C110.826,6.381,123.402,0,135.159,0
				c13.579,0,26.062,5.926,26.062,20.963h-13.393c-0.457-7.838-6.469-9.844-13.304-9.844c-4.563,0-10.306,1.913-10.306,7.383
				c0,5.01,3.274,5.789,19.59,9.982c4.738,1.184,19.604,4.051,19.604,18.814c0,11.938-9.383,20.869-27.07,20.869
				c-14.398,0-27.885-7.107-27.702-23.148H122.032z"/>
		</g>
		<path fill="#034EA2" d="M326.414-30.299"/>
		<path fill="#034EA2" d="M-42.949-30.299"/>
		<path fill="#034EA2" d="M-42.949,129.731"/>
	</g>
</g>
</svg>
