<?xml version="1.0" encoding="utf-8"?>
<!-- Generator: Adobe Illustrator 21.1.0, SVG Export Plug-In . SVG Version: 6.00 Build 0)  -->
<svg version="1.1" id="Layer_1" xmlns="http://www.w3.org/2000/svg" xmlns:xlink="http://www.w3.org/1999/xlink" x="0px" y="0px"
	 viewBox="0 0 208 180.9" style="enable-background:new 0 0 208 180.9;" xml:space="preserve">
<style type="text/css">
	.st0{fill:#FFFFFF;}
</style>
<g>
	<path class="st0" d="M103.7,0c1.4,2.5,2.7,4.7,4.1,7.1C85.6,45.8,63.4,84.6,41,123.4c2.2,0,4.2,0,6.4,0
		C68.6,86.6,89.7,49.8,111,12.7c1.4,2.4,2.7,4.6,4,6.9C95.2,54.2,75.3,88.8,55.4,123.5c2.2,0,4.3,0,6.4,0
		C80.6,90.7,99.4,58,118.2,25.2c1.4,2.4,2.7,4.6,4,7C104.8,62.6,87.3,93,69.8,123.5c2.2,0,4.2,0,6.4,0c16.3-28.5,32.7-57,49.2-85.7
		c17.7,30.7,35.2,61.2,52.9,91.9c-1-0.1-1.7-0.3-2.5-0.3c-6.1-0.1-12.2-0.3-18.2-0.2c-4,0-8,0.1-12,0.5c-6.4,0.7-9.8,4-10.5,10.4
		c-0.9,8.1-0.9,16.2-0.1,24.3c0.7,7.3,4.5,10.7,11.8,11.1c6.7,0.3,13.3,0.3,20,0.3c4.1,0,8.3-0.1,12.4-0.5c3.8-0.4,7-2,8.5-5.9
		c1.1-3.1,1.3-6.3,1.3-9.6c-3.8,0-7.6,0-11.4,0c-0.1,0.8-0.2,1.5-0.3,2.3c-0.2,1.8-1,3.1-2.7,3.8c-0.9,0.3-1.9,0.6-2.9,0.6
		c-6.4,0.1-12.9,0-19.3,0c-0.7,0-1.4-0.1-2.1-0.3c-2.8-0.6-4.2-2.6-4.3-5.2c-0.1-6.1-0.1-12.2,0.2-18.3c0.1-2.3,1.4-3.4,3.7-3.7
		c0.8-0.1,1.7-0.3,2.5-0.3c6.2,0,12.5,0,18.7,0c0.7,0,1.4,0.1,2.1,0.3c2.4,0.6,3.9,2,4.2,4.5c0.1,0.5,0.2,1.1,0.3,1.7
		c3.2,0,6.3,0,9.5,0c6.9,12,13.8,23.9,20.8,36.1c-69.4,0-138.6,0-208,0c6.7-11.7,13.4-23.5,20.4-35.5c0,10.2,0,20.2,0,30.1
		c15.9,0,31.6,0,47.5,0c0-2.8,0-5.7,0-8.7c-12.1,0-24.1,0-36.3,0c0-3.6,0-7.1,0-10.6c11.7,0,23.3,0,35.1,0c0-2.7,0-5.4,0-8.1
		c-11.7,0-23.3,0-35.1,0c0-3.5,0-6.8,0-10.2c12.1,0,24.2,0,36.3,0c1.7-2.9,3.3-5.7,5.1-8.8c-14.5,0-28.7,0-43.2,0
		C54.4,86,79,43.1,103.7,0z M128.4,175.6c0-3.7,0.1-7.3,0-10.9c-0.1-2.5-1.5-4.4-3.8-5.5c-1.1-0.5-2.3-1-3.6-1.6
		c0.5-0.3,0.8-0.5,1.1-0.8c2.9-2.1,5-4.7,5.4-8.3s0.3-7.1-0.8-10.6c-1.3-4.1-4-6.9-8.2-7.9c-2.5-0.6-5.2-0.9-7.8-0.9
		c-11.2-0.1-22.3,0-33.5,0c-0.4,0-0.8,0-1.3,0.1c0,15.6,0,31,0,46.4c3.7,0,7.4,0,11.2,0c0-4.6,0-9.1,0-13.6c0.2-0.1,0.3-0.1,0.4-0.1
		c7.6,0,15.3-0.1,22.9,0.1c5,0.1,7,2.3,7,7.4c0,2.1,0,4.1,0,6.3C121,175.6,124.7,175.6,128.4,175.6z"/>
	<path class="st0" d="M86.9,152.6c0-4.8,0-9.4,0-14.2c0.4,0,0.8,0,1.2,0c7.2,0,14.3,0,21.5,0c5.3,0,6.9,1.6,6.9,6.9
		c0,1-0.1,1.9-0.2,2.9c-0.5,3-2.1,4.4-5.2,4.4c-6.2,0.1-12.5,0-18.7,0C90.5,152.6,88.8,152.6,86.9,152.6z"/>
</g>
</svg>
