<?xml version="1.0" encoding="utf-8"?>
<!-- Generator: Adobe Illustrator 21.1.0, SVG Export Plug-In . SVG Version: 6.00 Build 0)  -->
<svg version="1.1" id="Layer_1" xmlns="http://www.w3.org/2000/svg" xmlns:xlink="http://www.w3.org/1999/xlink" x="0px" y="0px"
	 viewBox="0 0 175.748 85.561" enable-background="new 0 0 175.748 85.561" xml:space="preserve">
<g>
	<path fill-rule="evenodd" clip-rule="evenodd" fill="#EF3E33" d="M11.539,69.682H0c0,0,2.17-1.085,2.17-3.156
		c0-0.888,0-32.743,0-34.321c0-2.367-2.17-2.958-2.17-2.958h24.163v6.805c0,0-0.592-2.269-2.466-2.269c-1.578,0-12.328,0-12.328,0
		v11.144h12.525v6.214c0,0-0.395-1.479-2.17-1.479c-1.479,0-10.356,0-10.356,0s0,15.878,0,16.766
		C9.369,68.696,11.539,69.682,11.539,69.682L11.539,69.682z"/>
	<path fill-rule="evenodd" clip-rule="evenodd" fill="#EF3E33" d="M159.574,70.454c-8.496-0.029-14.399-5.212-14.399-10.535
		c0-8.58,0-25.741,0-27.714c0-1.972-2.367-2.958-2.367-2.958h11.638c0,0-2.367,0.986-2.367,2.86c0,1.874,0,27.122,0,27.812
		c0,2.657,3.715,6.066,7.298,6.042c3.517-0.025,7.101-3.356,7.101-6.042c0-0.986,0-26.48,0-27.762c0-2.071-2.367-2.86-2.367-2.86
		h11.638c0,0-2.367,0.789-2.367,2.86s0,20.168,0,27.762C173.381,65.097,167.494,70.481,159.574,70.454L159.574,70.454z"/>
	<path fill-rule="evenodd" clip-rule="evenodd" fill="#EF3E33" d="M42.408,70.454c-8.496-0.029-14.399-5.212-14.399-10.535
		c0-8.58,0-25.741,0-27.714c0-1.972-2.367-2.958-2.367-2.958H37.28c0,0-2.367,0.986-2.367,2.86c0,1.874,0,27.122,0,27.812
		c0,2.657,3.715,6.066,7.298,6.042c3.516-0.025,7.101-3.356,7.101-6.042c0-0.986,0-26.53,0-27.812c0-2.071-2.367-2.86-2.367-2.86
		h11.638c0,0-2.367,0.789-2.367,2.86c0,2.071,0,20.218,0,27.812C56.216,65.097,50.328,70.481,42.408,70.454L42.408,70.454z"/>
	<path fill-rule="evenodd" clip-rule="evenodd" fill="#EF3E33" d="M73.179,29.246c0,0-2.367,0.986-2.367,3.057
		c0,2.17,0,42.606,0,42.606s-0.121,7.397-12.624,10.651c-0.257,0.067,5.621-6.213,5.621-10.651c0-2.959,0.071-41.029,0-42.606
		c-0.098-2.17-2.367-3.057-2.367-3.057H73.179L73.179,29.246z"/>
	<path fill-rule="evenodd" clip-rule="evenodd" fill="#EF3E33" d="M85.014,66.526c0.099,2.17,2.367,3.057,2.367,3.057H75.645
		c0,0,2.367-0.986,2.367-3.057h0.012c0.017-12.226,0.039-33.081-0.012-34.223c-0.099-2.17-2.367-3.057-2.367-3.057h11.736
		c0,0-2.367,0.986-2.367,3.057c0,1.508,0,22.067,0,34.124V66.526L85.014,66.526z"/>
	<path fill-rule="evenodd" clip-rule="evenodd" fill="#EF3E33" d="M106.316,33.783c0,5.2,0,22.146,0,32.645v0.099
		c0.099,2.17,2.367,3.057,2.367,3.057H96.947c0,0,2.367-0.986,2.367-3.057h0.012c0.014-10.502,0.033-27.473,0.005-32.743
		c0,0-5.047,0-7.809,0c-2.466,0-3.846,2.762-3.846,2.762l2.367-7.298h27.516l-1.677,6.706c0,0-0.099-2.17-2.466-2.17
		C111.544,33.783,106.316,33.783,106.316,33.783L106.316,33.783z"/>
	<path fill-rule="evenodd" clip-rule="evenodd" fill="#EF3E33" d="M72.112,17.16c1.418,3.086,5.45,5.435,9.746,5.435
		c6.239,0,11.297-5.058,11.297-11.297C93.155,5.057,88.097,0,81.858,0c-3.401,0-6.45,1.502-8.521,3.879l0.077,5.985
		c0.359-4.104,4.815-6.425,8.444-6.327c4.289,0.116,7.768,3.479,7.768,7.769c0,4.291-3.478,7.769-7.768,7.769
		c-2.758,0-5.132-1.487-6.51-3.653l-0.359-0.691c-1.549-2.872-4.693-5.086-8.319-5.086c-5.161,0-9.345,4.184-9.345,9.345
		c0,5.161,4.183,9.345,9.345,9.345c2.957,0,5.594-1.374,7.307-3.519v-4.198l-3.373,2.806c-1.008,0.695-2.482,1.286-3.934,1.286
		c-3.158,0-5.719-2.561-5.719-5.719c0-3.158,2.561-5.718,5.719-5.718c2.336,0,4.251,1.452,5.376,3.763L72.112,17.16L72.112,17.16z"
		/>
	<path fill-rule="evenodd" clip-rule="evenodd" fill="#EF3E33" d="M138.616,35.558c0,0,0-3.797,0-4.98
		c0-0.69-4.511-1.723-7.372-1.751c-2.07-0.02-14.078,0.467-14.078,10.972c0,8.63,9.073,12.032,10.257,12.624
		c1.183,0.592,7.84,3.551,7.84,7.101c0,4.635-3.945,6.953-8.679,6.953c-4.734,0-8.585-3.068-9.665-3.995
		c-0.084-0.072,1.628,7.101,1.628,7.101s4.279,1.085,7.89,1.085c1.677,0,15.879,0,15.879-11.243c0-8.531-8.729-11.588-10.454-12.427
		c-1.587-0.77-7.743-3.156-7.743-7.594c0-3.55,4.241-6.509,7.397-6.509C135.959,32.896,137.531,34.326,138.616,35.558
		L138.616,35.558z"/>
</g>
</svg>
