<?xml version="1.0" encoding="utf-8"?>
<!-- Generator: Adobe Illustrator 21.1.0, SVG Export Plug-In . SVG Version: 6.00 Build 0)  -->
<svg version="1.1" id="Layer_1" xmlns="http://www.w3.org/2000/svg" xmlns:xlink="http://www.w3.org/1999/xlink" x="0px" y="0px"
	 viewBox="0 0 112.156 18.375" enable-background="new 0 0 112.156 18.375" xml:space="preserve">
<g>
	<path d="M0.158,17.833V0.649h4.336v6.783h9.291V0.649h4.591v17.184h-4.531v-7.544H4.494v7.544H0.158z"/>
	<path d="M26.479,17.833h-4.336V0.649h4.336V17.833z"/>
	<path d="M28.148,0.649h18.606v2.856h-6.941v14.328h-4.531V3.505h-7.135V0.649z"/>
	<path d="M42.89,17.833l7.956-17.184h5.608l8.039,17.184h-4.95l-1.584-3.642h-8.523l-1.453,3.642H42.89z M56.963,11.336
		l-3.212-7.718l-3.292,7.718H56.963z"/>
	<path d="M85.575,17.833V0.649h4.53v6.783h9.291V0.649h4.398v17.184h-4.337v-7.544h-9.352v7.544H85.575z"/>
	<path d="M111.896,17.833h-4.337V0.649h4.337V17.833z"/>
	<path d="M78.394,6.412c0.031-1.808-1.051-3.502-4.659-3.519c-4.67-0.021-5.094,4.116-5.111,6.348
		c-0.035,4.795,2.017,6.22,5.37,6.283c3.287,0.063,4.431-2.033,4.4-3.842h4.836c-0.213,4.308-3.142,6.455-9.235,6.508
		c-7.275,0.064-10.399-3.927-10.399-8.949c0-5.022,3.059-9.127,10.205-9.143c5.06-0.011,9.022,2.006,9.235,6.314H78.394z"/>
</g>
</svg>
