<?xml version="1.0" encoding="utf-8"?>
<!-- Generator: Adobe Illustrator 21.1.0, SVG Export Plug-In . SVG Version: 6.00 Build 0)  -->
<svg version="1.1" id="Index" xmlns="http://www.w3.org/2000/svg" xmlns:xlink="http://www.w3.org/1999/xlink" x="0px" y="0px"
	 viewBox="0 0 166.6 166.6" style="enable-background:new 0 0 166.6 166.6;" xml:space="preserve">
<style type="text/css">
	.st0{fill:#00A1DD;}
</style>
<path class="st0" d="M133.7,57.8h-13.3l-18.6,51h13.3L133.7,57.8L133.7,57.8z M83.3,166.6c-0.8,0-1.6,0-2.5,0l17-46.8h23.4
	c4.1,0,8.6-3.2,10-7L149.7,62c3-8.3-1.7-15.1-10.6-15.1h-32.5l-27.3,74.9h0l-15.5,42.5C27.3,155.6,0,122.6,0,83.3
	C0,45.1,25.7,12.9,60.8,3.1l-16,43.8h0l-26.5,72.8H36l22.5-61.9h13.3l-22.5,61.9l17.6,0l21-57.7c3-8.3-1.7-15.1-10.6-15.1H62.5
	l17-46.8C80.8,0,82,0,83.3,0c46,0,83.3,37.3,83.3,83.3C166.6,129.3,129.3,166.6,83.3,166.6z"/>
</svg>
