<?xml version="1.0" encoding="utf-8"?>
<!-- Generator: Adobe Illustrator 21.1.0, SVG Export Plug-In . SVG Version: 6.00 Build 0)  -->
<svg version="1.1" id="Layer_1" xmlns="http://www.w3.org/2000/svg" xmlns:xlink="http://www.w3.org/1999/xlink" x="0px" y="0px"
	 viewBox="0 0 332.75 85.75" enable-background="new 0 0 332.75 85.75" xml:space="preserve">
<g>
	<path fill="#EF4434" d="M36.263,42.502L69.45,2.951H45.927L19.043,34.99V2.951H0v81.771h19.043V50.014l29.124,34.709h23.524
		L36.263,42.502z M113.697,53.499c0,8.661-7.021,15.682-15.682,15.682c-8.661,0-15.683-7.02-15.683-15.682
		c0-8.662,7.022-15.683,15.683-15.683C106.676,37.816,113.697,44.837,113.697,53.499 M129.333,53.825
		c0-17.631-14.294-31.925-31.925-31.925c-17.632,0-31.925,14.294-31.925,31.925c0,17.632,14.293,31.925,31.925,31.925
		C115.039,85.75,129.333,71.457,129.333,53.825 M182.914,53.499c0,8.661-7.021,15.682-15.682,15.682
		c-8.663,0-15.684-7.02-15.684-15.682c0-8.662,7.021-15.683,15.684-15.683C175.893,37.816,182.914,44.837,182.914,53.499
		 M198.55,53.826V0.711h-17.362v24.728c-4.369-2.246-9.311-3.538-14.563-3.538c-17.632,0-31.925,14.294-31.925,31.925
		c0,17.632,14.293,31.925,31.925,31.925C184.256,85.75,198.549,71.457,198.55,53.826 M246.717,62.977
		c0,5.808-5.95,8.256-8.298,8.256h-10.006c-3.693,0-7.04-2.848-7.04-7.218c0-4.37,3.221-7.158,8.261-7.158h17.083
		C246.717,60.556,246.717,61.174,246.717,62.977 M263.239,65.254V41.342c0,0-3.482-18.788-27.191-18.788
		c-20.088,0-22.393,2.848-22.393,2.848v13.208c0,0,4.742-1.822,19.231-1.822c14.489,0,13.436,9.11,13.436,9.11
		s-41.78-5.979-41.78,19.356c0,0,0.156,20.496,28.608,20.496C261.602,85.75,263.239,65.254,263.239,65.254 M306.661,53.704
		l23.788-28.351h-22.403l-19.043,22.695V0.711h-17.362v84.012h17.362V60.694l20.163,24.028h23.524L306.661,53.704z"/>
</g>
</svg>
