<?xml version="1.0" encoding="utf-8"?>
<!-- Generator: Adobe Illustrator 21.1.0, SVG Export Plug-In . SVG Version: 6.00 Build 0)  -->
<svg version="1.1" id="Layer_1" xmlns="http://www.w3.org/2000/svg" xmlns:xlink="http://www.w3.org/1999/xlink" x="0px" y="0px"
	 viewBox="0 0 165.2 21.517" enable-background="new 0 0 165.2 21.517" xml:space="preserve">
<g>
	<path fill="#ED1C24" d="M71.414,13.997h10.931l-5.774-9.306L65.97,21.513l-4.832,0.004L74.043,1.315
		C74.591,0.494,75.536,0,76.564,0c1.015,0,1.947,0.479,2.497,1.279l12.949,20.238l-4.834-0.004l-2.267-3.761H73.83L71.414,13.997
		L71.414,13.997z M121.568,17.757V0.21h-4.099v19.262c0,0.533,0.217,1.043,0.597,1.423c0.402,0.397,0.931,0.619,1.502,0.619h18.681
		l2.41-3.756H121.568L121.568,17.757z M53.793,14.616c3.977,0,7.202-3.226,7.202-7.203c0-3.978-3.226-7.203-7.202-7.203H35.865
		v21.303h4.095V3.965h13.551c1.909,0,3.447,1.542,3.447,3.448c0,1.904-1.538,3.45-3.447,3.45l-11.544-0.004l12.226,10.654h5.952
		l-8.226-6.901L53.793,14.616L53.793,14.616z M10.652,21.513C4.771,21.513,0,16.747,0,10.863C0,4.979,4.771,0.21,10.652,0.21h12.383
		c5.882,0,10.651,4.769,10.651,10.653c0,5.885-4.769,10.654-10.651,10.654L10.652,21.513L10.652,21.513z M22.759,17.759
		c3.81,0,6.896-3.087,6.896-6.896c0-3.81-3.086-6.897-6.896-6.897L10.927,3.965c-3.809,0-6.897,3.088-6.897,6.898
		c0,3.81,3.088,6.896,6.897,6.896H22.759L22.759,17.759z M100.556,21.513c-5.88,0-10.653-4.767-10.653-10.65
		c0-5.884,4.773-10.653,10.653-10.653h14.715l-2.411,3.756l-12.027-0.001c-3.811,0-6.899,3.088-6.899,6.898
		c0,3.81,3.088,6.896,6.899,6.896h14.77l-2.406,3.754H100.556L100.556,21.513z M150.669,17.759c-3.152,0-5.819-2.12-6.633-5.012
		h17.511l2.412-3.756L144.031,8.99c0.815-2.899,3.478-5.025,6.638-5.025l12.019,0.001l2.415-3.756h-14.715
		c-5.879,0-10.651,4.769-10.651,10.653c0,5.884,4.772,10.65,10.651,10.65h12.641l2.408-3.754H150.669L150.669,17.759z"/>
</g>
</svg>
