<?xml version="1.0" encoding="utf-8"?>
<!-- Generator: Adobe Illustrator 21.1.0, SVG Export Plug-In . SVG Version: 6.00 Build 0)  -->
<svg version="1.1"
	 id="svg24499" inkscape:version="0.44" sodipodi:docbase="R:\Logos" sodipodi:docname="Panasonic-Logo.svg" sodipodi:version="0.32" xmlns:cc="http://web.resource.org/cc/" xmlns:dc="http://purl.org/dc/elements/1.1/" xmlns:inkscape="http://www.inkscape.org/namespaces/inkscape" xmlns:rdf="http://www.w3.org/1999/02/22-rdf-syntax-ns#" xmlns:sodipodi="http://sodipodi.sourceforge.net/DTD/sodipodi-0.dtd" xmlns:svg="http://www.w3.org/2000/svg"
	 xmlns="http://www.w3.org/2000/svg" xmlns:xlink="http://www.w3.org/1999/xlink" x="0px" y="0px" viewBox="0 0 252.1 39.7"
	 style="enable-background:new 0 0 252.1 39.7;" xml:space="preserve">
<style type="text/css">
	.st0{fill:#2C4285;}
</style>
<sodipodi:namedview  bordercolor="#666666" borderopacity="1.0" height="37.5mm" id="base" inkscape:current-layer="layer1" inkscape:cx="350" inkscape:cy="520" inkscape:document-units="px" inkscape:pageopacity="0.0" inkscape:pageshadow="2" inkscape:window-height="574" inkscape:window-width="925" inkscape:window-x="242" inkscape:window-y="242" inkscape:zoom="0.35" pagecolor="#ffffff" units="mm" width="212.42809mm">
	</sodipodi:namedview>
<g id="layer1" transform="translate(374.9204,-408.833)" inkscape:groupmode="layer" inkscape:label="Ebene 1">
	<g id="g24516" transform="translate(-1.494141e-6,7.088289)">
		<path id="path23367" class="st0" d="M-374.9,440.6V402h16.2c5.5,0.1,10.7,0.3,14.4,5.3c1,1.4,2.4,3.9,2.4,8.2
			c0,5.4-2.3,8.6-4,10.1c-2.9,2.9-6.7,3.2-10.5,3.4h-7.1v11.7H-374.9z M-359,420c1.9,0,4.1-0.2,5.4-1.5c0.4-0.4,1-1.2,1-2.6
			c0-1.3-0.6-2.2-1-2.6c-1.7-1.8-4.3-1.6-6.5-1.6h-3.2v8.3H-359"/>
		<path id="path23369" class="st0" d="M-323.2,440.7l-0.4-2.6c-1.5,1.1-4.1,3.4-9,3.4c-0.8,0-4.4-0.1-6.9-2.2
			c-1.1-0.9-2.9-3.2-2.9-6.9c0-0.9,0.2-2.4,1.7-4.2c2-2.7,4.4-3.4,7.5-4.1l5.2-0.6c0.6-0.2,1.2-0.3,1.9-0.4c0.1-0.1,1-0.2,1.4-0.5
			s0.8-1.6,0.8-2.2c0-1.1-1.4-2-3.6-2c-2,0-2.9,0.7-3.4,1.4c-0.2,0.4-0.3,0.7-0.4,1.6l-9.8-0.1c0.4-2.2,0.9-4,2.5-5.9
			c2-2.2,5.2-3.7,11.4-3.7c1.2,0,6-0.5,9.5,1.9c1.4,0.9,2.3,2,3,3.5c1.1,2.3,0.8,5.1,0.8,7.5v7.7c0,4.8,0.3,5.7,1.2,8.4H-323.2z
			 M-324.2,428.3c-1.4,0.5-2.9,0.9-4.3,1.4l-1.1,0.3c-0.5,0.1-2.2,0.5-2.2,2.5c0,0.9,0.5,2.6,2.7,2.6c0.3,0,1.6-0.1,2.3-0.3
			c2-0.5,2.1-1.8,2.6-2.4V428.3"/>
		<path id="path23371" class="st0" d="M-293.7,440.7V427c0,1.6,0.4-5.3-1-6c-0.5-0.2-1.4-0.7-2.5-0.7c-1.3,0-2.7,0.6-3.2,1.8
			c-0.5,1.4-0.7,2.6-0.7,5.5v13.1h-10.5v-28.3h10l0.1,3.3c1.4-1.7,3-3.8,8.8-3.8c4.3,0,7.6,1.5,8.9,5.8c0.3,1.1,0.4,2.2,0.5,4.4
			v18.6H-293.7"/>
		<path id="path23373" class="st0" d="M-235.1,420.6c-0.2-1.1-1-2.9-3.7-2.9c-1.2,0-2,0.3-2.5,0.6c-0.2,0.1-0.6,0.8-0.6,1.6
			c0,0.2,0.2,0.9,0.8,1.2c0.4,0.2,1.3,0.5,2.4,0.6l4.1,1.1c2.9,0.7,5.5,1.3,7.5,3.3c1,1,1.6,2.2,1.7,2.7c0.5,1.5,0.2,2.6,0.2,3.1
			c0,3.3-1.6,5.3-2.5,6.2c-2,1.8-5.2,3.2-11,3.2c-4.8,0-7.9-1.3-9.7-2.3c-3.9-2.2-4.1-6.3-4.3-7.6l10.1,0c0.1,1,0.2,1.7,1,2.4
			c0.6,0.6,1.3,1,3.1,1c2.1,0,3.4-1,3.4-2c0-0.1,0-0.9-0.2-1.2c-0.5-0.8-1.8-1.2-3.7-1.6c0,0-5.9-1.3-6.3-1.5
			c-1.3-0.6-6.6-1.8-6.6-7.7c0-3.3,1.7-5.1,2.7-6c1.8-1.6,4.8-3,10.1-3c1.2,0,6.1-0.1,9.9,2.5c1,0.7,1.9,1.6,2.5,2.6
			c0.9,1.5,1,3.2,1.1,3.8H-235.1"/>
		<path id="path23381" class="st0" d="M-198.9,437.5c-1.7,1.7-5.2,4-11,4c-1.9,0-7-0.1-10.7-4.5c-1.6-1.9-3.5-5-3.5-10.7
			c0-1,0-3.2,0.9-5.6c2.1-6.2,7.8-9,13.8-8.9c1.6,0,6.6,0.2,10.2,3.8c1.8,1.8,4.1,5.2,4.1,11.2
			C-195.1,428.1-195.2,433.7-198.9,437.5z M-206.7,420.4c-0.9-0.9-2.3-1-2.8-1c-1.2,0-2.1,0.7-2.4,0.9c-1.3,1-2.2,2.6-2.2,6.1
			c0,2.8,0.6,7.4,4.5,7.4c1.1,0,2.2-0.3,2.9-1.1c0.9-1,1.9-2.9,1.9-6.1C-204.8,426.3-204.8,422.3-206.7,420.4"/>
		<path id="path23383" class="st0" d="M-163.1,412.3h10.3v28.5h-10.3V412.3z M-163.1,401.7h10.3v7.4h-10.3V401.7z"/>
		<path id="path23385" class="st0" d="M-132.8,423.2c-0.8-3.4-2.4-3.6-4.3-3.6c-1.5,0-2,0.5-2.5,0.9c-1.3,1.1-1.8,2.5-1.8,6
			c0,0.3-0.1,4.9,2.4,6.7c0.7,0.5,1.1,0.5,2,0.5c0.3,0,1.2,0,2-0.3c1-0.5,2.1-1.4,2.3-3.8l10-0.1c-0.1,0.6-0.5,2.9-1.5,4.8
			c-2.5,5-7.6,7-12.7,7c-2.1,0-3.6-0.3-4.4-0.5c-4.1-1-7.6-3.8-9.2-7.9c-0.4-1.2-1-3.1-1-6.2c0-1.3,0-4.6,1.9-7.9
			c0.2-0.5,1.1-1.9,2.2-3.1c3.8-3.7,9.5-3.8,10.8-3.8c5.3,0,8.5,2,10.2,3.5c0.5,0.5,1.5,1.8,2.2,3.5c0.6,1.4,1,2.7,1.2,4.3H-132.8"
			/>
		<path id="path23387" class="st0" d="M-253.5,432.4v-7.7c0-2.4,0-5.6-1-7.9c-0.7-1.5-1.2-2.3-2.6-3.2c-3.5-2.4-8.7-1.9-9.9-1.9
			c-6.2,0-9.4,1.6-11.4,3.9c-1.6,1.9-2,3.7-2.4,5.9h9.8c0-0.9,0.2-1.2,0.4-1.6c0.5-0.7,1.3-1.6,3.3-1.6c2.2,0,3.6,1.1,3.6,2.2
			c0,0.6,0,1.6-0.5,1.9c-0.4,0.3-1.6,0.7-1.8,0.8c-0.5,0.1-1.1,0.2-1.9,0.4l-5.1,0.6c-3.1,0.7-5.5,1.3-7.5,4
			c-1.5,1.9-1.5,3.6-1.5,4.4c0,3.7,1.6,5.9,2.7,6.8c2.5,2.1,6.1,2,6.9,2c4.8,0,7.4-2.1,8.9-3.3l0.4,2.7h10.6
			C-252.9,439-253.6,438.1-253.5,432.4z M-266.5,435c-0.7,0.2-1.9,0.2-2.1,0.2c-1.8-0.1-2.7-1.7-2.7-2.6c0-2.1,1.7-2.4,2.2-2.5
			l1.1-0.3c1.4-0.5,2.9-0.9,4.3-1.4l0,3.6C-264.1,432.7-264.6,434.5-266.5,435"/>
		<path id="path23389" class="st0" d="M-175.6,440.6v-13.8c0,1.6,0.5-5.3-1-5.9c-0.5-0.2-1.4-0.7-2.5-0.7c-1.3,0-2.7,0.6-3.2,1.8
			c-0.6,1.4-0.9,2.3-0.8,5.2l-0.1,13.5l-10.3,0v-28.3h9.9l0.1,3.3c1.4-1.7,3-3.8,8.9-3.8c4.2,0,7.5,1.8,8.8,6.2
			c0.3,1.1,0.3,1.8,0.5,4.1v18.6L-175.6,440.6"/>
	</g>
</g>
</svg>
