<?xml version="1.0" encoding="utf-8"?>
<!-- Generator: Adobe Illustrator 21.1.0, SVG Export Plug-In . SVG Version: 6.00 Build 0)  -->
<svg version="1.1" id="Layer_1" xmlns="http://www.w3.org/2000/svg" xmlns:xlink="http://www.w3.org/1999/xlink" x="0px" y="0px"
	 viewBox="0 0 234.149 26.584" enable-background="new 0 0 234.149 26.584" xml:space="preserve">
<g>
	<path fill-rule="evenodd" clip-rule="evenodd" fill="#3F3F3F" d="M104.052,0c2.282,0,4.564,0,6.847,0
		c0.229,0.26,0.209,0.581,0.209,0.892c0.002,7.151,0.013,14.303-0.006,21.455c-0.004,1.69-0.561,3.116-2.166,3.947
		c-0.415,0.185-0.854,0.229-1.302,0.221c-0.746,0.042-1.498-0.089-2.24,0.069c-0.089,0-0.179,0-0.269,0
		c-0.996-0.095-1.764-0.631-2.538-1.216c-5.438-4.105-10.867-8.223-16.313-12.317c-1.803-1.357-3.589-2.735-5.403-4.075
		c-0.173-0.128-0.315-0.417-0.616-0.241c-0.086,0.269-0.044,0.539-0.044,0.805c-0.003,5.229-0.002,10.458-0.003,15.687
		c0,0.246,0.001,0.491-0.011,0.737c-0.018,0.368-0.16,0.563-0.577,0.557c-2.1-0.029-4.2,0.027-6.3-0.032
		c-0.262-0.244-0.221-0.572-0.222-0.878c-0.006-7.278-0.012-14.557,0.002-21.835c0.003-1.88,0.943-3.074,2.89-3.775
		c0.224,0,0.447,0,0.671,0c0.761,0.114,1.522,0.114,2.282,0c0.134,0,0.269,0,0.403,0c0.884,0.077,1.585,0.547,2.263,1.061
		c6.562,4.971,13.164,9.889,19.743,14.838c0.251,0.188,0.526,0.341,0.77,0.54c0.199,0.206,0.446,0.346,0.683,0.5
		c0.318,0.195,0.57,0.494,0.939,0.622c0.169-0.274,0.095-0.548,0.096-0.808c0.005-5.22,0.002-10.44,0.006-15.661
		C103.848,0.719,103.78,0.326,104.052,0z"/>
	<path fill-rule="evenodd" clip-rule="evenodd" fill="#3F3F3F" d="M230.791,0c0.135,0,0.27,0,0.404,0
		c0.844,0.114,1.531,0.486,2.119,1.122c0.492,0.533,0.742,1.137,0.834,1.832c0,7.831,0,15.664,0,23.495
		c-0.656,0.142-1.32,0.053-1.98,0.06c-1.527,0.017-3.057,0.005-4.584,0.007c-0.432-0.122-0.32-0.493-0.326-0.778
		c-0.021-1.051-0.008-2.103-0.008-3.155c0-5.146,0-10.291,0-15.596c-0.775,1.335-1.428,2.578-2.111,3.802
		c-2.387,4.278-4.746,8.571-7.143,12.844c-0.383,0.68-0.658,1.427-1.23,1.989c-0.141,0.139-0.289,0.27-0.438,0.401
		c-0.047,0.04-0.096,0.076-0.148,0.108c-0.154,0.084-0.318,0.15-0.471,0.238c-0.049,0.028-0.104,0.051-0.158,0.067
		c-0.232,0.113-0.508,0.014-0.736,0.148c-0.447,0-0.895,0-1.342,0c-1.182-0.159-1.877-0.932-2.412-1.908
		c-1.18-2.157-2.381-4.3-3.574-6.448c-2.127-3.828-4.254-7.655-6.357-11.496c-0.254-0.467-0.602-0.66-1.133-0.653
		c-1.588,0.019-3.174,0.013-4.762,0.005c-0.947-0.005-1.105-0.185-1.141-1.149c-0.027-0.721,0.055-1.431,0.188-2.132
		c0.285-1.511,1.369-2.481,3.08-2.802c0.045,0,0.09,0,0.135,0c1.148,0.159,2.301,0.048,3.451,0.06
		c0.639,0.008,1.285,0.096,1.918-0.06c0.045,0,0.09,0,0.135,0c1.44,0.086,2.281,0.995,2.92,2.153c1.006,1.82,2.01,3.641,3.014,5.46
		c1.738,3.15,3.518,6.278,5.277,9.551c0.49-0.675,0.807-1.378,1.178-2.043c2.383-4.274,4.762-8.554,7.111-12.847
		c0.604-1.102,1.379-1.971,2.652-2.274c0.18,0,0.359,0,0.537,0c1.281,0.155,2.568,0.04,3.852,0.063
		C229.957,0.069,230.381,0.147,230.791,0z"/>
	<path fill-rule="evenodd" clip-rule="evenodd" fill="#3F3F3F" d="M0,20.407c0-3.401,0-6.802,0-10.203
		C0.368,9.903,0.809,9.99,1.226,9.99c9.343-0.005,18.686-0.001,28.029-0.006c1.848-0.001,1.664,0.188,1.676-1.709
		c0.003-0.558-0.004-1.117-0.001-1.676c0.001-0.423-0.191-0.612-0.608-0.606c-0.224,0.005-0.447-0.003-0.67-0.003
		c-5.498,0-10.997,0-16.496-0.001c-0.402,0-0.805,0.019-1.204-0.048c-0.443-0.146-0.887-0.151-1.333-0.005
		C9.188,6.05,7.756,5.976,6.326,5.987C4.559,6.001,2.792,5.994,1.025,5.988C0.672,5.987,0.302,6.034,0,5.773c0-1.88,0-3.76,0-5.639
		c0.232-0.124,0.482-0.062,0.723-0.063c2.613-0.005,5.225-0.003,7.838-0.003c1.081,0,2.162,0,3.242,0c1.076,0,2.151,0,3.227,0
		c1.078,0,2.154,0,3.231,0c1.561,0,3.122,0,4.682,0c1.292,0,2.584,0,3.875,0C27.993,0.03,29.171,0.153,30.343,0
		c0.224,0,0.448,0,0.672,0C32.021,0.165,33.041,0.218,34,0.656c2.202,1.006,3.55,2.642,3.731,5.076
		c0.135,1.825,0.168,3.663-0.059,5.491c-0.296,2.387-1.746,3.743-3.963,4.377c-1.056,0.302-2.142,0.449-3.247,0.448
		c-7.427-0.004-14.854-0.002-22.281-0.002c-1.264,0-1.265,0.002-1.265,1.256c-0.001,2.729,0.004,5.458-0.005,8.188
		c-0.001,0.347,0.081,0.727-0.231,1.007c-2.181,0.017-4.36,0.052-6.54-0.018c-0.149-0.57-0.048-1.151-0.069-1.728
		C0.02,23.305,0.161,21.854,0,20.407z"/>
	<path fill-rule="evenodd" clip-rule="evenodd" fill="#3F3F3F" d="M160.842,0c0.008,3.912,0.018,7.824,0.023,11.735
		c0.004,2.102-0.002,4.203,0.002,6.305c0.004,1.59,0.758,2.345,2.348,2.345c6.482,0.004,12.967,0.005,19.449,0.001
		c1.453-0.001,2.252-0.748,2.254-2.146c0.008-5.992-0.004-11.982-0.01-17.975c0-0.088-0.021-0.176-0.033-0.265
		c2.283,0,4.565,0,6.848,0c0.229,0.262,0.201,0.583,0.201,0.893c0.002,6.276,0.029,12.554-0.012,18.831
		c-0.018,2.479-1.06,4.476-3.144,5.899c-0.94,0.641-1.998,0.836-3.086,0.96c-0.18,0-0.359,0-0.537,0
		c-0.209-0.126-0.438-0.066-0.656-0.066c-7.797-0.003-15.596-0.003-23.393,0c-0.219,0-0.447-0.06-0.656,0.066
		c-0.133,0-0.268,0-0.402,0c-1.674-0.127-3.098-0.786-4.246-2.017c-1.193-1.278-1.855-2.791-1.859-4.547
		c-0.014-6.353-0.006-12.706-0.004-19.06c0-0.331-0.043-0.678,0.201-0.961C156.368,0,158.606,0,160.842,0z"/>
	<path fill-rule="evenodd" clip-rule="evenodd" fill="#3F3F3F" d="M33.436,26.445c0.459-1.043,1.091-1.989,1.656-2.974
		c2.466-4.298,4.957-8.581,7.415-12.884c0.234-0.41,0.481-0.545,0.938-0.543c3.999,0.018,7.999,0.01,12.122,0.01
		c-0.422-0.811-0.794-1.56-1.198-2.29c-0.343-0.621-0.487-1.498-1.069-1.8c-0.55-0.284-1.352-0.09-2.043-0.091
		c-1.811-0.004-3.621-0.012-5.431,0.008c-0.483,0.006-0.54-0.113-0.301-0.516c0.706-1.19,1.393-2.392,2.08-3.593
		c0.556-0.972,1.49-1.406,2.474-1.773c0.089,0,0.179,0,0.269,0c1.343,0.115,2.685,0.115,4.028,0c0.134,0,0.269,0,0.403,0
		c1.426,0.089,2.294,0.963,2.954,2.116c3.114,5.431,6.257,10.845,9.377,16.273c1.381,2.404,2.772,4.804,4.171,7.197
		c0.123,0.212,0.264,0.416,0.31,0.665c0.04,0.22-0.078,0.277-0.269,0.265c-2.33-0.001-4.658-0.001-6.986,0
		c-0.425-0.069-0.536-0.445-0.694-0.752c-1.477-2.859-3.029-5.68-4.473-8.556c-0.292-0.581-0.652-0.797-1.3-0.792
		c-3.555,0.027-7.109,0.032-10.664-0.004c-0.731-0.007-1.152,0.241-1.475,0.878c-1.445,2.851-2.968,5.661-4.45,8.492
		c-0.168,0.321-0.253,0.753-0.761,0.732c-2.144,0-4.286,0.002-6.428-0.003C33.872,26.511,33.643,26.572,33.436,26.445z"/>
	<path fill-rule="evenodd" clip-rule="evenodd" fill="#3F3F3F" d="M129.024,26.45c-0.012-0.379-0.033-0.758-0.035-1.138
		c-0.002-6.15-0.008-12.302,0.012-18.453c0.002-0.548-0.125-0.71-0.691-0.708c-4.652,0.023-9.305,0.005-13.957,0.024
		c-0.522,0.003-0.707-0.121-0.663-0.658c0.049-0.6,0.003-1.207,0.013-1.812c0.027-1.786,1.039-3.094,2.765-3.575
		c0.087-0.025,0.174-0.027,0.206-0.131c0.179,0,0.358,0,0.537,0c0.208,0.126,0.436,0.066,0.655,0.066
		c9.723,0.003,19.445,0.003,29.166,0c0.219,0,0.447,0.06,0.656-0.066c0.178,0,0.357,0,0.537,0c0.285,0.103,0.582,0.184,0.854,0.314
		c1.391,0.67,2.139,1.78,2.199,3.328c0.023,0.624-0.031,1.254,0.018,1.876c0.043,0.549-0.164,0.659-0.678,0.657
		c-4.691-0.019-9.385,0.001-14.076-0.026c-0.623-0.004-0.816,0.115-0.812,0.785c0.029,6.278,0.017,12.557,0.016,18.836
		c0,0.223-0.012,0.446-0.018,0.669c-0.227,0.145-0.477,0.07-0.715,0.071c-1.779,0.007-3.557,0.006-5.334,0.001
		C129.46,26.511,129.231,26.567,129.024,26.45z"/>
	<path fill-rule="evenodd" clip-rule="evenodd" fill="#3F3F3F" d="M201.096,26.429c-2.055,0.007-4.109-0.006-6.162,0.032
		c-0.561,0.01-0.531-0.284-0.531-0.666c0.006-4.421,0.004-8.842,0.004-13.263c0-0.669,0.016-1.34-0.008-2.009
		c-0.012-0.354,0.119-0.463,0.465-0.46c2.076,0.02,4.152,0.022,6.229,0.029C201.092,15.538,201.094,20.983,201.096,26.429z"/>
</g>
</svg>
