<?xml version="1.0" encoding="utf-8"?>
<!-- Generator: Adobe Illustrator 21.1.0, SVG Export Plug-In . SVG Version: 6.00 Build 0)  -->
<svg version="1.1" id="Layer_1" xmlns="http://www.w3.org/2000/svg" xmlns:xlink="http://www.w3.org/1999/xlink" x="0px" y="0px"
	 viewBox="0 0 200.777 66.659" enable-background="new 0 0 200.777 66.659" xml:space="preserve">
<path fill="#034EA2" d="M200.653,15.87C197.923,0.194,150.822-4.698,95.446,4.943C72.19,8.994,51.191,14.969,34.838,21.691
	c2.511,0.055,4.375,0.631,5.506,1.76c0.885,0.886,1.332,2.102,1.332,3.617v1.555h-5.429V27.25c0-1.144-0.686-1.853-1.902-1.853
	c-1.02,0-1.65,0.461-1.852,1.369c-0.057,0.253-0.073,0.688,0.022,1.084c0.581,2.375,8.644,3.85,9.522,8.234
	c0.115,0.564,0.271,1.77,0.025,3.498c-0.503,3.535-3.609,4.899-7.563,4.899c-5.519,0-7.761-2.615-7.761-6.218l0.004-1.705h5.821
	l0.003,2.124c0,1.194,0.868,1.853,2.05,1.853c1.12,0,1.774-0.451,2-1.374c0.105-0.424,0.151-1.048-0.04-1.526
	c-1.077-2.703-8.607-3.965-9.533-8.334c-0.207-0.982-0.224-1.818-0.052-2.875c0.093-0.573,0.269-1.063,0.482-1.511
	C9.333,33.398-1.278,42.732,0.124,50.79c2.733,15.677,49.833,20.565,105.208,10.924c24.342-4.238,46.225-10.58,62.881-17.688
	c-0.242,0.012-0.475,0.038-0.725,0.038c-3.79,0-7.174-1.42-7.525-5.294c-0.063-0.705-0.074-1-0.076-1.403l0.002-8.905
	c0-0.384,0.045-1.058,0.088-1.406c0.449-3.744,3.409-5.288,7.512-5.288c3.175,0,7.068,0.911,7.496,5.291
	c0.057,0.55,0.051,1.137,0.05,1.33c0,0.002,0,0.002,0,0.004v0.837h-5.485v-1.251v-0.004c0-0.027-0.007-0.496-0.068-0.789
	c-0.09-0.447-0.471-1.483-2.033-1.483c-1.543,0-1.943,1.038-2.043,1.484c-0.057,0.245-0.084,0.597-0.084,0.987v9.679
	c-0.005,0.336,0.012,0.598,0.046,0.792c0.027,0.153,0.304,1.486,2.099,1.486c1.784,0,2.059-1.333,2.084-1.486
	c0.047-0.262,0.053-0.575,0.051-0.792v-2.999h-2.158v-3.23h7.631c0,0,0,5.743,0,5.745c-0.002,0.391-0.008,0.681-0.074,1.401
	c-0.092,1.016-0.412,1.876-0.914,2.611C191.753,32.995,202.037,23.812,200.653,15.87z M57.065,43.653l-2.778-18.876h-0.1
	l-2.848,18.876h-5.856l3.938-21.317h9.552l3.914,21.317H57.065z M85.227,43.653l-0.129-18.511h-0.093l-3.446,18.511h-5.495
	l-3.428-18.511h-0.097l-0.124,18.511h-5.446l0.472-21.317h8.758l2.55,15.836h0.125l2.556-15.836h8.754l0.47,21.317H85.227z
	 M110.868,39.522c-0.586,4.129-4.631,4.85-7.49,4.85c-4.747,0-7.683-2.028-7.683-6.158l0.003-1.684h5.751l0.004,2.098
	c0,1.139,0.803,1.837,2.043,1.837c1.106,0,1.754-0.445,1.979-1.357c0.104-0.425,0.148-1.045-0.037-1.513
	c-1.059-2.651-8.53-3.95-9.438-8.252c-0.208-0.975-0.223-1.803-0.052-2.849c0.632-3.899,4.374-4.709,7.386-4.709
	c2.694,0,4.655,0.588,5.83,1.764c0.877,0.878,1.321,2.083,1.321,3.582v1.538h-5.378v-1.357c0-1.162-0.721-1.834-1.88-1.834
	c-1.028,0-1.65,0.457-1.853,1.356c-0.042,0.19-0.083,0.631,0.026,1.072c0.576,2.364,8.568,3.809,9.443,8.151
	C110.956,36.613,111.111,37.803,110.868,39.522z M130.786,37.586c0.008,0.4-0.031,1.198-0.053,1.403
	c-0.328,3.513-2.84,5.298-7.447,5.298c-4.625,0-7.139-1.785-7.465-5.298c-0.022-0.204-0.063-1.003-0.053-1.4V22.331h5.502V38.07
	c-0.006,0.352,0.012,0.612,0.047,0.793c0.068,0.35,0.416,1.486,1.969,1.486c1.548,0,1.896-1.136,1.969-1.483
	c0.031-0.185,0.049-0.459,0.049-0.797V22.331h5.482C130.786,22.331,130.786,37.589,130.786,37.586z M154.491,43.436h-7.656
	l-5.139-16.885h-0.086l0.285,16.885h-5.336v-21.1h7.977l4.75,16.22h0.111l-0.281-16.22h5.375V43.436z"/>
</svg>
