<?xml version="1.0" encoding="utf-8"?>
<!-- Generator: Adobe Illustrator 21.1.0, SVG Export Plug-In . SVG Version: 6.00 Build 0)  -->
<svg version="1.1" id="Layer_1" xmlns="http://www.w3.org/2000/svg" xmlns:xlink="http://www.w3.org/1999/xlink" x="0px" y="0px"
	 viewBox="0 0 950.056 259.596" enable-background="new 0 0 950.056 259.596" xml:space="preserve">
<path fill="#FFFFFF" d="M88.637,71.463c-17.48,0-34.959-0.001-52.439,0.002c-0.826,0-1.654-0.008-2.477,0.047
	c-4.54,0.303-8.053,3.733-8.52,8.296c-0.448,4.381,2.337,8.532,6.637,9.686c1.204,0.323,2.508,0.373,3.767,0.374
	c33.624,0.019,67.248-0.002,100.873,0.047c2.844,0.004,5.73,0.22,8.524,0.732c9.368,1.716,14.168,7.744,13.991,17.276
	c-0.07,3.78-0.837,7.444-1.938,11.038c-2.046,6.679-4.136,13.345-6.223,20.011c-8.366,26.728-16.743,53.452-25.103,80.181
	c-1.713,5.477-4.262,10.482-8.301,14.611c-5.915,6.046-12.909,8.863-21.419,6.823c-10.069-2.413-15.231-9.898-14.008-20.174
	c0.527-4.427,2.086-8.482,4.08-12.418c9.387-18.533,18.776-37.064,28.107-55.625c1.019-2.027,1.905-4.18,2.448-6.375
	c1.34-5.417-0.99-9.718-6.159-11.769c-0.938-0.372-1.927-0.715-2.921-0.831c-2.392-0.278-4.8-0.575-7.203-0.582
	c-17.034-0.048-34.069-0.028-51.104-0.019c-1.015,0.001-2.038,0.028-3.043,0.152c-5.371,0.663-9.034,6.081-7.677,11.315
	c1.069,4.123,4.589,6.931,8.924,6.981c4.957,0.058,9.916-0.019,14.873,0.037c1.836,0.021,3.688,0.137,5.503,0.411
	c9.023,1.364,14.744,8.337,14.429,17.457c-0.113,3.274-0.909,6.412-1.863,9.509c-3.925,12.746-7.938,25.465-11.801,38.23
	c-0.878,2.9-1.566,5.917-1.849,8.926c-0.76,8.102,1.076,15.535,6.5,21.838c2.69,3.126,5.959,5.526,9.623,7.379
	c5.808,2.938,11.896,4.529,18.492,4.563c6.291,0.033,12.272-0.952,17.942-3.633c11.19-5.291,18.604-13.918,22.299-25.701
	c10.849-34.601,21.66-69.214,32.482-103.823c2.037-6.514,3.471-13.128,3.506-20.003c0.08-15.797-8.426-27.706-23.417-32.667
	c-5.179-1.714-10.523-2.314-15.958-2.31C121.69,71.471,105.164,71.463,88.637,71.463z"/>
<path fill="#FFFFFF" d="M576.288,101.438c0.218,0.787,0.381,1.454,0.586,2.109c6.879,21.935,13.797,43.859,20.614,65.813
	c1.212,3.905,3.542,6.741,7.09,8.536c8.047,4.072,16.159,3.931,24.171-0.103c3.437-1.731,5.678-4.494,6.812-8.282
	c2.569-8.577,5.32-17.099,7.999-25.643c0.171-0.545,0.32-1.102,0.55-1.622c0.36-0.815,0.982-1.306,1.915-1.337
	c0.985-0.032,1.758,0.344,2.17,1.245c0.315,0.69,0.534,1.425,0.762,2.151c2.623,8.362,5.314,16.703,7.824,25.099
	c1.152,3.853,3.455,6.656,6.93,8.434c8.375,4.286,16.762,4.056,24.989-0.431c3.011-1.642,4.959-4.201,6.003-7.556
	c6.904-22.194,13.879-44.365,20.829-66.545c0.182-0.581,0.336-1.171,0.522-1.822c-5.923,0-11.62,0-17.345,0
	c-0.568,1.79-1.113,3.481-1.641,5.177c-4.318,13.886-8.631,27.775-12.957,41.659c-0.205,0.658-0.463,1.315-0.802,1.913
	c-0.392,0.693-0.991,1.172-1.868,1.068c-0.864-0.102-1.334-0.666-1.597-1.441c-0.143-0.421-0.27-0.847-0.401-1.272
	c-3.674-11.826-7.354-23.649-11.017-35.478c-0.784-2.533-2.03-4.78-3.853-6.714c-8.937-9.478-25.605-4.609-28.799,6.545
	c-3.443,12.023-7.424,23.892-11.171,35.827c-0.133,0.424-0.259,0.852-0.424,1.264c-0.312,0.777-0.878,1.263-1.739,1.239
	c-0.861-0.024-1.394-0.552-1.682-1.329c-0.177-0.476-0.309-0.967-0.461-1.452c-4.698-15.032-9.396-30.064-14.097-45.094
	c-0.205-0.656-0.447-1.3-0.675-1.959C595.751,101.438,586.111,101.438,576.288,101.438z"/>
<path fill="#FFFFFF" d="M546.068,101.368c-0.883,0-1.632,0-2.382,0c-17.095,0-34.189-0.002-51.284,0.002
	c-3.622,0.001-7.246-0.044-10.866,0.049c-4.685,0.121-9.214,1.088-13.457,3.103c-9.021,4.284-14.38,11.279-14.675,21.409
	c-0.285,9.778-0.231,19.575-0.001,29.356c0.2,8.514,4.103,15.079,11.619,19.283c1.874,1.048,3.875,1.915,5.898,2.641
	c6.217,2.23,12.717,3.049,19.261,3.373c10.989,0.544,21.981,0.54,32.932-0.733c6.827-0.794,13.553-2.088,20.01-4.535
	c4.067-1.542,7.914-3.467,11.083-6.534c2.734-2.647,4.19-5.815,4.132-9.687c-0.071-4.765-0.015-9.532-0.02-14.298
	c-0.001-0.571-0.02-1.144-0.067-1.714c-0.378-4.634-3.55-8.426-8.072-9.488c-1.22-0.287-2.52-0.322-3.783-0.325
	c-10.994-0.024-21.988-0.016-32.982-0.01c-0.616,0-1.233,0.062-1.941,0.1c0,4.245,0,8.339,0,12.508
	c0.535,0.052,0.966,0.129,1.397,0.131c2.542,0.013,5.085-0.03,7.626,0.018c3.354,0.064,5.174,1.895,5.22,5.234
	c0.037,2.732-0.004,5.465,0.013,8.198c0.016,2.583-1.072,4.627-3.296,5.831c-1.651,0.894-3.468,1.637-5.3,2.014
	c-6.216,1.28-12.525,0.787-18.808,0.661c-0.566-0.011-1.131-0.162-1.691-0.277c-5.362-1.101-9.008-5.169-9.03-10.3
	c-0.05-11.248-0.041-22.496-0.002-33.744c0.015-4.15,2.348-7.253,6.255-8.655c1.829-0.656,3.714-0.768,5.63-0.767
	c14.743,0.009,29.487,0.005,44.23,0.004c0.744,0,1.488,0,2.35,0C546.068,109.851,546.068,105.698,546.068,101.368z"/>
<path fill="#FFFFFF" d="M212.236,176.402c0.538,0.158,1.013,0.32,1.498,0.438c9.3,2.261,18.775,3.26,28.303,3.708
	c10.355,0.487,20.715,0.521,31.04-0.669c7.085-0.816,14.068-2.114,20.783-4.597c3.652-1.35,7.137-3.031,10.172-5.521
	c2.357-1.934,4.241-4.22,5.02-7.239c1.011-3.914-0.098-7.417-2.256-10.66c-1.785-2.682-4.175-4.778-6.774-6.638
	c-4.311-3.085-9.012-5.48-13.862-7.567c-6.068-2.611-12.222-5.023-18.269-7.679c-3.131-1.375-6.162-3.004-9.136-4.697
	c-1.179-0.671-2.225-1.716-3.077-2.791c-1.663-2.097-1.231-4.836,0.996-6.323c1.03-0.688,2.268-1.226,3.481-1.442
	c1.926-0.342,3.909-0.483,5.869-0.49c12.141-0.041,24.283-0.021,36.425-0.021c0.736,0,1.473,0,2.163,0
	c0.388-2.849,0.275-11.44-0.159-12.847c-0.724,0-1.483,0-2.242,0c-12.714,0-25.427-0.033-38.141,0.016
	c-5.019,0.02-10.045,0.09-15.054,0.376c-6.736,0.385-13.389,1.426-19.865,3.386c-4.216,1.276-8.285,2.895-11.755,5.712
	c-6.016,4.886-6.989,12.143-2.508,18.483c1.747,2.471,3.958,4.463,6.402,6.21c3.688,2.635,7.661,4.788,11.832,6.52
	c6.04,2.508,12.179,4.778,18.226,7.27c3.929,1.619,7.813,3.364,11.624,5.24c1.325,0.652,2.464,1.779,3.523,2.852
	c1.12,1.134,1.242,2.581,0.687,4.087c-0.48,1.304-1.29,2.381-2.449,3.076c-1.297,0.778-2.666,1.491-4.088,1.993
	c-3.022,1.066-6.199,1.396-9.382,1.442c-11.922,0.171-23.734-0.924-35.43-3.253c-1.153-0.23-2.317-0.403-3.597-0.623
	C212.236,168.368,212.236,172.351,212.236,176.402z"/>
<path fill="#FFFFFF" d="M828.992,179.278c-0.152-0.621-0.242-1.106-0.389-1.574c-5.641-17.924-11.276-35.849-16.939-53.765
	c-1.355-4.286-3.517-8.162-6.375-11.625c-1.985-2.406-4.096-4.741-6.835-6.296c-10.409-5.909-21.47-7.473-33.112-4.668
	c-4.347,1.047-8.569,2.559-12.196,5.198c-6.079,4.423-10.332,10.313-12.622,17.477c-5.719,17.898-11.331,35.83-16.977,53.752
	c-0.143,0.455-0.174,0.946-0.271,1.502c7.07,0,13.966,0,20.895,0c0.214-0.633,0.406-1.167,0.575-1.709
	c1.424-4.543,2.837-9.089,4.268-13.63c0.706-2.239,1.01-2.466,3.402-2.467c12.009-0.008,24.018-0.007,36.027,0
	c2.383,0.001,2.695,0.232,3.404,2.462c1.462,4.598,2.904,9.202,4.363,13.8c0.168,0.53,0.399,1.041,0.593,1.542
	C807.559,179.278,818.198,179.278,828.992,179.278z"/>
<path fill="#FFFFFF" d="M425.841,101.352c-0.984,0-1.737,0-2.49,0c-10.677,0-21.354-0.004-32.031,0.001
	c-9.406,0.004-18.812-0.028-28.217,0.048c-4.754,0.038-9.347,1.061-13.645,3.108c-9.477,4.514-14.622,11.957-14.728,22.565
	c-0.092,9.214-0.132,18.433,0.035,27.645c0.169,9.322,4.47,16.233,12.827,20.508c1.184,0.606,2.418,1.129,3.661,1.606
	c5.264,2.018,10.771,2.93,16.351,3.436c7.542,0.684,15.102,0.701,22.666,0.54c10.806-0.23,21.591-0.726,32.278-2.469
	c2.61-0.426,5.189-1.035,7.763-1.556c0-4.304,0-8.333,0-12.48c-6.915,1.526-13.775,2.439-20.693,2.752
	c-9.391,0.425-18.79,0.691-28.187,0.974c-1.129,0.034-2.285-0.171-3.397-0.409c-5.214-1.113-8.621-4.935-8.885-10.036
	c-0.115-2.218-0.109-4.451-0.012-6.671c0.136-3.117,2.006-4.844,5.149-4.928c0.508-0.014,1.017-0.003,1.525-0.003
	c13.346,0,26.692,0.001,40.038-0.004c0.732,0,1.464-0.054,2.157-0.081c0.353-3.548,0.227-11.192-0.223-12.646
	c-0.712,0-1.469,0-2.226,0c-13.283,0-26.565,0-39.848-0.001c-0.635,0-1.274,0.025-1.906-0.024c-2.77-0.213-4.469-1.843-4.639-4.61
	c-0.109-1.772-0.11-3.563,0.009-5.334c0.304-4.518,2.875-7.6,7.297-8.604c1.651-0.375,3.397-0.459,5.1-0.463
	c13.982-0.035,27.963-0.02,41.945-0.02c0.742,0,1.484,0,2.325,0C425.841,109.838,425.841,105.731,425.841,101.352z"/>
<path fill="#FFFFFF" d="M829.606,101.417c0.646,0.956,1.027,1.535,1.423,2.103c6.611,9.488,13.222,18.977,19.837,28.462
	c3.635,5.211,7.239,10.445,10.936,15.612c1.843,2.575,2.789,5.294,2.694,8.519c-0.159,5.397-0.06,10.803-0.038,16.205
	c0.017,4.138,1.916,6.551,5.89,7.516c6.852,1.664,13.698,1.614,20.575,0.048c3.887-0.885,6.11-3.833,6.019-7.645
	c-0.128-5.335,0.1-10.68-0.077-16.013c-0.117-3.508,1.029-6.386,3.012-9.189c10.42-14.733,20.758-29.523,31.117-44.299
	c0.231-0.329,0.366-0.725,0.658-1.319c-0.872,0-1.493,0-2.113,0c-5.466,0-10.932,0.06-16.396-0.04
	c-1.467-0.027-2.277,0.479-3.077,1.651c-6.196,9.079-12.459,18.113-18.706,27.157c-0.433,0.626-0.852,1.277-1.377,1.821
	c-1.877,1.945-4.758,1.898-6.59-0.094c-0.47-0.511-0.861-1.1-1.26-1.673c-6.355-9.125-12.726-18.238-19.028-27.399
	c-0.742-1.079-1.517-1.457-2.795-1.451c-9.533,0.048-19.066,0.026-28.599,0.026C831.156,101.417,830.601,101.417,829.606,101.417z"
	/>
<path fill="#FFFFFF" d="M164.962,62.09c16.646,0.222,31.091-13.366,31.176-30.905c0.084-17.267-13.986-31.357-31.329-31.183
	c-17.884,0.18-30.797,14.875-30.783,30.952C134.042,48.159,147.816,62.055,164.962,62.09z"/>
<path fill="#FFFFFF" d="M67.028,102.115c-18.616,0-37.233,0-55.849,0.001c-0.826,0-1.654-0.018-2.477,0.032
	c-3.796,0.232-7.077,2.775-8.237,6.354c-1.189,3.67-0.054,7.46,2.916,9.972c2.076,1.757,4.512,2.16,7.118,2.159
	c37.614-0.01,75.228-0.006,112.842-0.014c0.886,0,1.781-0.043,2.657-0.169c4.34-0.628,7.527-4.118,7.851-8.551
	c0.305-4.167-2.516-8.235-6.636-9.349c-1.265-0.342-2.633-0.415-3.955-0.417C104.515,102.107,85.771,102.115,67.028,102.115z"/>
<path fill="#FFFFFF" d="M951.04,107.689c-0.016-3.328-2.703-5.999-6.059-6.024c-3.468-0.026-6.213,2.677-6.178,6.082
	c0.034,3.307,2.751,6.032,6.06,6.077C948.246,113.87,951.056,111.079,951.04,107.689z"/>
<path d="M88.637,71.463c16.526,0,33.052,0.008,49.578-0.004c5.435-0.004,10.779,0.596,15.958,2.31
	c14.992,4.961,23.497,16.87,23.417,32.667c-0.035,6.875-1.469,13.489-3.506,20.003c-10.822,34.609-21.633,69.222-32.482,103.823
	c-3.695,11.783-11.108,20.41-22.299,25.701c-5.671,2.681-11.652,3.665-17.942,3.633c-6.596-0.034-12.684-1.625-18.492-4.563
	c-3.664-1.853-6.933-4.253-9.623-7.379c-5.424-6.303-7.26-13.736-6.5-21.838c0.282-3.009,0.971-6.026,1.849-8.926
	c3.862-12.765,7.876-25.484,11.801-38.23c0.954-3.097,1.75-6.236,1.863-9.509c0.315-9.121-5.406-16.094-14.429-17.457
	c-1.814-0.274-3.666-0.39-5.503-0.411c-4.957-0.056-9.916,0.021-14.873-0.037c-4.336-0.051-7.856-2.859-8.924-6.981
	c-1.357-5.234,2.306-10.652,7.677-11.315c1.006-0.124,2.028-0.152,3.043-0.152c17.035-0.009,34.069-0.029,51.104,0.019
	c2.403,0.007,4.811,0.303,7.203,0.582c0.994,0.116,1.982,0.458,2.921,0.831c5.169,2.051,7.499,6.352,6.159,11.769
	c-0.543,2.195-1.429,4.348-2.448,6.375c-9.331,18.561-18.72,37.092-28.107,55.625c-1.994,3.936-3.553,7.991-4.08,12.418
	c-1.223,10.275,3.94,17.76,14.008,20.174c8.51,2.04,15.503-0.777,21.419-6.823c4.039-4.129,6.588-9.134,8.301-14.611
	c8.359-26.73,16.737-53.454,25.103-80.181c2.087-6.667,4.177-13.332,6.223-20.011c1.101-3.594,1.868-7.257,1.938-11.038
	c0.177-9.532-4.623-15.56-13.991-17.276c-2.794-0.512-5.68-0.728-8.524-0.732c-33.624-0.049-67.248-0.027-100.873-0.047
	c-1.258-0.001-2.563-0.051-3.767-0.374c-4.3-1.154-7.085-5.305-6.637-9.686c0.467-4.563,3.98-7.994,8.52-8.296
	c0.823-0.055,1.652-0.047,2.477-0.047C53.678,71.462,71.158,71.463,88.637,71.463z"/>
<path d="M576.288,101.438c9.823,0,19.463,0,29.234,0c0.228,0.659,0.47,1.303,0.675,1.959c4.701,15.031,9.399,30.063,14.097,45.094
	c0.152,0.485,0.284,0.977,0.461,1.452c0.288,0.776,0.821,1.305,1.682,1.329c0.861,0.024,1.427-0.462,1.739-1.239
	c0.165-0.412,0.291-0.84,0.424-1.264c3.747-11.936,7.727-23.804,11.171-35.827c3.194-11.153,19.862-16.023,28.799-6.545
	c1.823,1.934,3.069,4.181,3.853,6.714c3.663,11.829,7.343,23.653,11.017,35.478c0.132,0.425,0.259,0.851,0.401,1.272
	c0.263,0.775,0.732,1.339,1.597,1.441c0.877,0.103,1.476-0.376,1.868-1.068c0.339-0.598,0.597-1.255,0.802-1.913
	c4.326-13.884,8.638-27.772,12.957-41.659c0.527-1.696,1.073-3.387,1.641-5.177c5.725,0,11.423,0,17.345,0
	c-0.186,0.651-0.34,1.241-0.522,1.822c-6.949,22.18-13.924,44.351-20.829,66.545c-1.044,3.355-2.992,5.914-6.003,7.556
	c-8.227,4.487-16.614,4.717-24.989,0.431c-3.475-1.778-5.778-4.581-6.93-8.434c-2.509-8.396-5.201-16.737-7.824-25.099
	c-0.228-0.726-0.447-1.462-0.762-2.151c-0.412-0.901-1.185-1.278-2.17-1.245c-0.933,0.031-1.554,0.522-1.915,1.337
	c-0.23,0.52-0.379,1.077-0.55,1.622c-2.679,8.544-5.43,17.066-7.999,25.643c-1.135,3.788-3.375,6.551-6.812,8.282
	c-8.012,4.034-16.124,4.175-24.171,0.103c-3.547-1.795-5.877-4.632-7.09-8.536c-6.817-21.955-13.735-43.878-20.614-65.813
	C576.669,102.892,576.506,102.225,576.288,101.438z"/>
<path d="M546.068,101.368c0,4.33,0,8.483,0,12.847c-0.862,0-1.606,0-2.35,0c-14.743,0-29.487,0.005-44.23-0.004
	c-1.916-0.001-3.802,0.111-5.63,0.767c-3.907,1.401-6.24,4.504-6.255,8.655c-0.039,11.248-0.048,22.496,0.002,33.744
	c0.023,5.132,3.668,9.199,9.03,10.3c0.56,0.115,1.126,0.266,1.691,0.277c6.283,0.126,12.592,0.619,18.808-0.661
	c1.832-0.377,3.648-1.12,5.3-2.014c2.224-1.204,3.312-3.248,3.296-5.831c-0.017-2.732,0.025-5.466-0.013-8.198
	c-0.046-3.339-1.866-5.17-5.22-5.234c-2.541-0.049-5.084-0.006-7.626-0.018c-0.431-0.002-0.862-0.079-1.397-0.131
	c0-4.169,0-8.262,0-12.508c0.708-0.038,1.325-0.1,1.941-0.1c10.994-0.006,21.988-0.014,32.982,0.01
	c1.263,0.003,2.563,0.038,3.783,0.325c4.522,1.063,7.694,4.854,8.072,9.488c0.046,0.569,0.066,1.142,0.067,1.714
	c0.005,4.766-0.051,9.533,0.02,14.298c0.058,3.873-1.398,7.041-4.132,9.687c-3.168,3.067-7.016,4.993-11.083,6.534
	c-6.456,2.447-13.183,3.741-20.01,4.535c-10.951,1.273-21.943,1.276-32.932,0.733c-6.544-0.324-13.044-1.142-19.261-3.373
	c-2.023-0.726-4.024-1.593-5.898-2.641c-7.516-4.203-11.419-10.769-11.619-19.283c-0.23-9.781-0.284-19.578,0.001-29.356
	c0.295-10.13,5.654-17.125,14.675-21.409c4.243-2.015,8.772-2.982,13.457-3.103c3.62-0.093,7.244-0.048,10.866-0.049
	c17.095-0.003,34.189-0.002,51.284-0.002C544.436,101.368,545.186,101.368,546.068,101.368z"/>
<path d="M212.236,176.402c0-4.051,0-8.034,0-12.247c1.28,0.22,2.444,0.393,3.597,0.623c11.696,2.329,23.507,3.423,35.43,3.253
	c3.183-0.046,6.36-0.375,9.382-1.442c1.422-0.502,2.792-1.215,4.088-1.993c1.159-0.696,1.969-1.773,2.449-3.076
	c0.554-1.506,0.433-2.953-0.687-4.087c-1.059-1.073-2.198-2.2-3.523-2.852c-3.812-1.876-7.696-3.621-11.624-5.24
	c-6.047-2.492-12.186-4.762-18.226-7.27c-4.171-1.732-8.144-3.885-11.832-6.52c-2.444-1.746-4.656-3.738-6.402-6.21
	c-4.482-6.34-3.508-13.597,2.508-18.483c3.469-2.817,7.539-4.437,11.755-5.712c6.476-1.96,13.129-3.001,19.865-3.386
	c5.009-0.286,10.035-0.357,15.054-0.376c12.713-0.05,25.427-0.016,38.141-0.016c0.759,0,1.518,0,2.242,0
	c0.435,1.407,0.547,9.998,0.159,12.847c-0.691,0-1.427,0-2.163,0c-12.142,0-24.283-0.02-36.425,0.021
	c-1.96,0.007-3.943,0.148-5.869,0.49c-1.213,0.216-2.451,0.754-3.481,1.442c-2.227,1.487-2.659,4.226-0.996,6.323
	c0.853,1.075,1.899,2.12,3.077,2.791c2.974,1.694,6.005,3.322,9.136,4.697c6.047,2.656,12.202,5.068,18.269,7.679
	c4.85,2.087,9.551,4.482,13.862,7.567c2.599,1.86,4.989,3.956,6.774,6.638c2.158,3.242,3.267,6.745,2.256,10.66
	c-0.78,3.019-2.664,5.305-5.02,7.239c-3.035,2.49-6.52,4.171-10.172,5.521c-6.715,2.483-13.698,3.781-20.783,4.597
	c-10.325,1.19-20.685,1.156-31.04,0.669c-9.528-0.448-19.003-1.446-28.303-3.708C213.249,176.722,212.774,176.56,212.236,176.402z"
	/>
<path d="M828.992,179.278c-10.794,0-21.433,0-32.187,0c-0.195-0.502-0.425-1.012-0.593-1.542c-1.46-4.598-2.901-9.202-4.363-13.8
	c-0.709-2.23-1.022-2.46-3.404-2.462c-12.009-0.007-24.018-0.007-36.027,0c-2.393,0.002-2.697,0.228-3.402,2.467
	c-1.431,4.541-2.844,9.087-4.268,13.63c-0.17,0.541-0.362,1.076-0.575,1.709c-6.929,0-13.824,0-20.895,0
	c0.097-0.556,0.128-1.047,0.271-1.502c5.645-17.922,11.258-35.854,16.977-53.752c2.289-7.164,6.542-13.054,12.622-17.477
	c3.627-2.639,7.849-4.151,12.196-5.198c11.642-2.805,22.703-1.24,33.112,4.668c2.738,1.554,4.85,3.89,6.835,6.296
	c2.858,3.464,5.02,7.339,6.375,11.625c5.664,17.916,11.299,35.842,16.939,53.765C828.75,178.172,828.84,178.657,828.992,179.278z
	 M770.711,148.62c4.38,0,8.76,0.004,13.14-0.002c2.266-0.003,3.021-0.948,2.358-3.117c-2.13-6.975-4.252-13.953-6.487-20.894
	c-1.358-4.216-5.022-6.585-9.684-6.522c-4.228,0.057-7.238,2.403-8.607,6.738c-1.547,4.898-3.076,9.802-4.613,14.704
	c-0.645,2.057-1.327,4.104-1.924,6.176c-0.516,1.79,0.249,2.802,2.107,2.908c0.443,0.025,0.888,0.007,1.333,0.007
	C762.46,148.618,766.586,148.618,770.711,148.62z"/>
<path d="M425.841,101.352c0,4.378,0,8.486,0,12.846c-0.841,0-1.583,0-2.325,0c-13.982,0-27.963-0.015-41.945,0.02
	c-1.703,0.004-3.449,0.088-5.1,0.463c-4.422,1.004-6.993,4.086-7.297,8.604c-0.119,1.771-0.118,3.562-0.009,5.334
	c0.171,2.767,1.869,4.396,4.639,4.61c0.632,0.049,1.27,0.024,1.906,0.024c13.283,0.001,26.565,0.001,39.848,0.001
	c0.757,0,1.515,0,2.226,0c0.45,1.454,0.576,9.098,0.223,12.646c-0.693,0.027-1.425,0.08-2.157,0.081
	c-13.346,0.005-26.692,0.004-40.038,0.004c-0.508,0-1.017-0.011-1.525,0.003c-3.143,0.084-5.012,1.811-5.149,4.928
	c-0.097,2.22-0.102,4.452,0.012,6.671c0.264,5.102,3.672,8.924,8.885,10.036c1.113,0.237,2.269,0.442,3.397,0.409
	c9.397-0.283,18.796-0.549,28.187-0.974c6.918-0.313,13.778-1.227,20.693-2.752c0,4.147,0,8.176,0,12.48
	c-2.573,0.521-5.153,1.131-7.763,1.556c-10.687,1.743-21.473,2.239-32.278,2.469c-7.564,0.161-15.125,0.144-22.666-0.54
	c-5.581-0.506-11.087-1.419-16.351-3.436c-1.243-0.476-2.476-1-3.661-1.606c-8.357-4.275-12.658-11.186-12.827-20.508
	c-0.167-9.212-0.127-18.431-0.035-27.645c0.106-10.609,5.251-18.051,14.728-22.565c4.298-2.047,8.891-3.07,13.645-3.108
	c9.405-0.075,18.811-0.043,28.217-0.048c10.677-0.005,21.354-0.001,32.031-0.001C424.104,101.352,424.857,101.352,425.841,101.352z"
	/>
<path d="M829.606,101.417c0.995,0,1.55,0,2.105,0c9.533,0,19.066,0.022,28.599-0.026c1.278-0.006,2.053,0.372,2.795,1.451
	c6.302,9.161,12.673,18.274,19.028,27.399c0.399,0.573,0.789,1.161,1.26,1.673c1.832,1.992,4.713,2.039,6.59,0.094
	c0.525-0.544,0.944-1.195,1.377-1.821c6.248-9.044,12.51-18.078,18.706-27.157c0.8-1.173,1.61-1.678,3.077-1.651
	c5.464,0.101,10.93,0.04,16.396,0.04c0.62,0,1.241,0,2.113,0c-0.292,0.593-0.427,0.989-0.658,1.319
	c-10.359,14.776-20.697,29.567-31.117,44.299c-1.982,2.803-3.128,5.681-3.012,9.189c0.177,5.333-0.051,10.678,0.077,16.013
	c0.091,3.812-2.132,6.759-6.019,7.645c-6.877,1.566-13.723,1.616-20.575-0.048c-3.974-0.965-5.873-3.379-5.89-7.516
	c-0.022-5.402-0.121-10.807,0.038-16.205c0.095-3.225-0.851-5.943-2.694-8.519c-3.697-5.167-7.301-10.401-10.936-15.612
	c-6.616-9.485-13.226-18.973-19.837-28.462C830.633,102.951,830.252,102.372,829.606,101.417z"/>
<path d="M164.962,62.09c-17.147-0.035-30.92-13.931-30.936-31.136c-0.015-16.077,12.899-30.772,30.783-30.952
	c17.343-0.174,31.414,13.916,31.329,31.183C196.053,48.724,181.608,62.311,164.962,62.09z"/>
<path d="M67.028,102.115c18.743,0,37.487-0.008,56.23,0.017c1.321,0.002,2.69,0.075,3.955,0.417c4.12,1.115,6.941,5.182,6.636,9.349
	c-0.324,4.433-3.511,7.924-7.851,8.551c-0.876,0.127-1.771,0.169-2.657,0.169c-37.614,0.008-75.228,0.004-112.842,0.014
	c-2.606,0.001-5.042-0.403-7.118-2.159c-2.969-2.512-4.105-6.302-2.916-9.972c1.159-3.579,4.441-6.121,8.237-6.354
	c0.823-0.05,1.651-0.032,2.477-0.032C29.795,102.115,48.411,102.115,67.028,102.115z"/>
<path d="M951.04,107.689c0.016,3.39-2.794,6.181-6.178,6.135c-3.309-0.045-6.026-2.77-6.06-6.077
	c-0.035-3.405,2.711-6.108,6.178-6.082C948.337,101.69,951.024,104.361,951.04,107.689z M944.877,112.892
	c2.906,0.001,5.171-2.262,5.178-5.175c0.007-2.947-2.2-5.235-5.089-5.274c-2.945-0.04-5.343,2.343-5.314,5.28
	C939.681,110.601,941.996,112.891,944.877,112.892z"/>
<path fill="#FFFFFF" d="M770.711,148.619c-4.126-0.001-8.252-0.001-12.378-0.001c-0.444,0-0.89,0.018-1.333-0.007
	c-1.858-0.106-2.624-1.118-2.107-2.908c0.597-2.071,1.279-4.118,1.924-6.176c1.537-4.901,3.066-9.805,4.613-14.704
	c1.369-4.335,4.379-6.681,8.607-6.738c4.662-0.063,8.326,2.306,9.684,6.522c2.236,6.941,4.357,13.92,6.487,20.894
	c0.662,2.169-0.093,3.114-2.358,3.117C779.471,148.624,775.091,148.62,770.711,148.619z"/>
<path fill="#FFFFFF" d="M944.877,112.892c-2.881-0.001-5.196-2.292-5.225-5.169c-0.029-2.937,2.369-5.32,5.314-5.28
	c2.889,0.039,5.097,2.327,5.089,5.274C950.048,110.63,947.784,112.894,944.877,112.892z M942.413,104.276c0,2.398,0,4.533,0,6.785
	c0.53-0.046,0.93-0.081,1.322-0.114c0.087-0.866,0.161-1.603,0.263-2.622c0.532,0.292,0.951,0.409,1.193,0.682
	c0.33,0.372,0.532,0.86,0.776,1.305c0.501,0.914,1.168,0.947,2.075,0.485c-0.521-0.887-0.968-1.647-1.421-2.418
	c0.115-0.173,0.188-0.367,0.328-0.478c0.785-0.625,1.079-1.39,0.718-2.354c-0.338-0.902-1.104-1.21-1.961-1.257
	C944.645,104.231,943.579,104.276,942.413,104.276z"/>
<path d="M942.413,104.276c1.166,0,2.232-0.044,3.292,0.014c0.857,0.047,1.622,0.355,1.961,1.257
	c0.361,0.964,0.067,1.729-0.718,2.354c-0.139,0.111-0.212,0.305-0.328,0.478c0.453,0.771,0.9,1.532,1.421,2.418
	c-0.907,0.462-1.574,0.429-2.075-0.485c-0.244-0.445-0.446-0.933-0.776-1.305c-0.242-0.273-0.661-0.39-1.193-0.682
	c-0.102,1.019-0.176,1.756-0.263,2.622c-0.392,0.034-0.792,0.069-1.322,0.114C942.413,108.808,942.413,106.673,942.413,104.276z
	 M943.932,107.159c0.957,0.175,1.734,0.331,2.132-0.566c0.085-0.192-0.117-0.725-0.287-0.778c-0.555-0.172-1.157-0.194-1.845-0.288
	C943.932,106.187,943.932,106.607,943.932,107.159z"/>
<path fill="#FFFFFF" d="M943.932,107.159c0-0.552,0-0.972,0-1.632c0.688,0.094,1.289,0.116,1.845,0.288
	c0.17,0.053,0.373,0.586,0.287,0.778C945.666,107.49,944.889,107.334,943.932,107.159z"/>
</svg>
