<?xml version="1.0" encoding="utf-8"?>
<!-- Generator: Adobe Illustrator 21.1.0, SVG Export Plug-In . SVG Version: 6.00 Build 0)  -->
<svg version="1.1" id="Layer_1" xmlns="http://www.w3.org/2000/svg" xmlns:xlink="http://www.w3.org/1999/xlink" x="0px" y="0px"
	 viewBox="0 0 187.087 32.722" enable-background="new 0 0 187.087 32.722" xml:space="preserve">
<g>
	<path fill-rule="evenodd" clip-rule="evenodd" d="M184.243,26.442c-1.582,0-2.859,1.276-2.859,2.844
		c0,1.582,1.276,2.859,2.859,2.859c1.575,0,2.844-1.276,2.844-2.859C187.087,27.719,185.818,26.442,184.243,26.442L184.243,26.442
		L184.243,26.442L184.243,26.442z M184.243,31.802c-1.388,0-2.508-1.12-2.508-2.515c0-1.381,1.119-2.5,2.508-2.5
		c1.381,0,2.501,1.119,2.501,2.5C186.743,30.682,185.624,31.802,184.243,31.802L184.243,31.802L184.243,31.802L184.243,31.802z"/>
	<path fill-rule="evenodd" clip-rule="evenodd" d="M185.706,28.54c0-0.269-0.119-0.553-0.358-0.687
		c-0.239-0.142-0.508-0.157-0.776-0.157l0,0h-1.388v3.187h0.388v-1.47h0.716l0.911,1.47h0.463l-0.963-1.47l0,0
		C185.265,29.398,185.706,29.167,185.706,28.54L185.706,28.54L185.706,28.54L185.706,28.54z M184.168,29.107h-0.597V27.98h0.91l0,0
		c0.396,0,0.829,0.06,0.829,0.552C185.31,29.182,184.616,29.107,184.168,29.107L184.168,29.107L184.168,29.107L184.168,29.107z"/>
	<path fill-rule="evenodd" clip-rule="evenodd" d="M167.528,13.132l5.831-6.225l0,0c0.338-0.457,0.506-0.777,0.506-1.051
		c0-0.457-0.393-0.64-1.629-0.64l0,0h-1.471v-3.93h15.922v3.93h-2.093l0,0c-2.416,0-2.866,0.365-6.235,4.615l0,0l-9.224,9.96v6.078
		l0,0c0,1.554,0.786,2.101,3.034,2.101l0,0h3.482v3.792H153.35V27.97h3.483l0,0c2.246,0,3.033-0.547,3.033-2.101l0,0v-6.078
		L149.003,7.774l0,0c-1.797-2.101-1.548-2.558-6.546-2.558l0,0v-3.93h20.169v3.93h-1.437l0,0c-1.461,0-2.079,0.274-2.079,0.822
		c0,0.457,0.45,0.823,0.73,1.187l0,0l5.496,5.99l0,0C165.988,13.894,166.783,13.983,167.528,13.132L167.528,13.132L167.528,13.132
		L167.528,13.132z"/>
	<path fill-rule="evenodd" clip-rule="evenodd" d="M32.211,1.285h4.865v10.966h-4.493l0,0c-0.398-2.192-1.769-3.045-3.021-4.195
		c-2.258-2.074-7.144-3.801-11.256-3.801c-5.305,0-9.783,1.645-9.783,4.066c0,6.718,30.345,1.371,30.345,14.074
		c0,6.625-6.5,10.326-18.173,10.326c-4.041,0-10.157-1.254-13.764-3.17c-1.132-0.654-1.611,0.618-1.823,2.211l0,0H0.118V20.43H4.63
		l0,0c0.995,2.879,2.366,3.472,3.627,4.615c2.188,2.011,7.396,3.474,12.172,3.427c7.201-0.071,9.677-1.645,9.677-3.93
		c0-2.284-2.449-2.833-10.341-4.066l0,0l-6.699-1.096l0,0C5.505,18.237,0,16.546,0,10.515c0-6.26,6.964-10.19,17.974-10.19
		c4.64,0,8.523,0.62,12.248,2.726C31.256,3.721,32.224,3.802,32.211,1.285L32.211,1.285L32.211,1.285L32.211,1.285z"/>
	<path fill-rule="evenodd" clip-rule="evenodd" d="M127.154,19.644l0.096-12.188l0,0c0-1.598-0.831-2.147-3.209-2.147l0,0h-2.793
		V1.517h17.77v3.792h-2.317l0,0c-2.379,0-3.211,0.549-3.211,2.147l0,0v24.537l-6.957-0.054l-22.522-21.33v15.489l0,0
		c0,1.554,0.832,2.147,3.209,2.147l0,0h3.091v3.747H91.859v-3.747h3.057l0,0c2.377,0,3.209-0.593,3.209-2.147l0,0V7.456l0,0
		c0-1.598-0.832-2.147-3.209-2.147l0,0h-3.057V1.517h15.957L127.154,19.644L127.154,19.644L127.154,19.644z"/>
	<path fill-rule="evenodd" clip-rule="evenodd" d="M67.632,0.095c-14.162,0-23.027,6.261-23.027,16.313
		c0,9.871,8.742,16.084,22.595,16.084c14.715,0,23.273-6.122,23.273-16.586C90.473,6.493,81.237,0.095,67.632,0.095L67.632,0.095
		L67.632,0.095L67.632,0.095z M67.31,28.516c-7.839,0-12.345-4.524-12.345-12.337c0-7.63,4.702-12.154,12.737-12.154
		c7.708,0,12.215,4.616,12.215,12.475C79.915,24.175,75.344,28.516,67.31,28.516L67.31,28.516L67.31,28.516L67.31,28.516z"/>
</g>
</svg>
