<?xml version="1.0" encoding="utf-8"?>
<!-- Generator: Adobe Illustrator 21.1.0, SVG Export Plug-In . SVG Version: 6.00 Build 0)  -->
<svg version="1.1" id="Layer_1" xmlns="http://www.w3.org/2000/svg" xmlns:xlink="http://www.w3.org/1999/xlink" x="0px" y="0px"
	 viewBox="0 0 175.752 31.716" enable-background="new 0 0 175.752 31.716" xml:space="preserve">
<g>
	<path fill-rule="evenodd" clip-rule="evenodd" d="M40.143,20.392c1.048,1.209,2.095,2.095,3.103,2.7
		c1.048,0.604,2.055,0.887,3.063,0.887c0.967,0,1.733-0.242,2.337-0.766c0.605-0.524,0.927-1.128,0.927-1.934
		c0-0.846-0.282-1.531-0.806-1.975c-0.524-0.484-1.733-0.967-3.587-1.451c-2.539-0.685-4.312-1.612-5.4-2.7
		c-1.048-1.088-1.572-2.619-1.572-4.514c0-2.499,0.846-4.514,2.499-6.085c1.652-1.572,3.828-2.337,6.488-2.337
		c1.411,0,2.781,0.161,4.07,0.564c1.29,0.403,2.499,0.967,3.627,1.733l-2.216,5.118c-0.806-0.685-1.612-1.209-2.458-1.572
		c-0.846-0.323-1.693-0.524-2.539-0.524c-0.846,0-1.531,0.201-2.055,0.604c-0.524,0.443-0.806,0.967-0.806,1.572
		c0,0.685,0.242,1.169,0.725,1.572c0.443,0.403,1.33,0.766,2.7,1.128c0.08,0.04,0.161,0.04,0.322,0.081
		c2.861,0.766,4.755,1.652,5.682,2.579c0.604,0.645,1.088,1.411,1.411,2.297c0.322,0.887,0.484,1.894,0.484,2.982
		c0,2.741-0.927,4.957-2.741,6.65c-1.813,1.652-4.232,2.499-7.214,2.499c-1.814,0-3.466-0.323-4.957-0.927
		c-1.491-0.605-2.902-1.572-4.272-2.902L40.143,20.392L40.143,20.392z M65.411,28.814h-6.65V2.821h7.415
		c2.902,0,4.917,0.161,6.085,0.443c1.169,0.282,2.176,0.766,2.982,1.451c0.967,0.806,1.693,1.773,2.216,2.982
		c0.484,1.169,0.725,2.499,0.725,3.949c0,1.531-0.242,2.902-0.725,4.07c-0.524,1.209-1.249,2.176-2.216,2.902
		c-0.725,0.605-1.572,1.007-2.579,1.249c-1.007,0.242-2.579,0.363-4.796,0.363H66.7h-1.289V28.814L65.411,28.814z M65.411,14.508
		h1.33c1.733,0,2.902-0.202,3.587-0.685c0.645-0.484,1.008-1.249,1.008-2.378c0-1.088-0.323-1.894-1.008-2.337
		c-0.645-0.443-1.813-0.685-3.506-0.685h-1.411V14.508L65.411,14.508z M88.905,2.821h4.433l8.946,25.993h-7.052L93.5,24.14h-4.594
		h-4.554l-1.773,4.675h-7.053l8.987-25.993H88.905L88.905,2.821z M88.905,19.102h3.546l-2.66-8.584
		c-0.081-0.242-0.202-0.685-0.322-1.249c-0.161-0.564-0.323-1.33-0.564-2.216c-0.202,0.886-0.403,1.652-0.524,2.216
		c-0.161,0.564-0.282,1.007-0.363,1.249L85.4,19.102H88.905L88.905,19.102z M104.381,28.814V2.821h7.415
		c2.902,0,4.917,0.161,6.045,0.403c1.169,0.282,2.136,0.725,2.982,1.33c0.927,0.725,1.652,1.612,2.136,2.741
		c0.524,1.088,0.766,2.297,0.766,3.627c0,2.015-0.484,3.627-1.491,4.916c-0.967,1.25-2.418,2.096-4.312,2.499l7.093,10.478h-8.02
		l-5.964-10.196v10.196H104.381L104.381,28.814z M111.03,15.112h1.33c1.531,0,2.62-0.282,3.345-0.806
		c0.685-0.484,1.048-1.33,1.048-2.418c0-1.33-0.322-2.257-1.007-2.781c-0.645-0.564-1.733-0.846-3.305-0.846h-1.411V15.112
		L111.03,15.112z M127.674,28.814V2.821h7.012v11.808l8.221-11.808h7.858h0.403h7.697l3.506,6.69c0.04,0.04,0.04,0.121,0.121,0.202
		c0.363,0.685,0.605,1.37,0.766,2.015c0.08-0.604,0.363-1.249,0.766-1.934c0.04-0.121,0.08-0.242,0.121-0.282l3.466-6.69h8.141
		l-9.067,14.145v11.848h-6.851V16.966l-8.906-13.823l-9.35,12.372l10.438,13.299h-8.866l-8.463-11.687v11.687H127.674
		L127.674,28.814z"/>
	<polygon fill-rule="evenodd" clip-rule="evenodd" fill="#FFFFFF" points="0.407,0.403 31.317,0.403 31.317,31.313 0.407,31.313 
		0.407,0.403 	"/>
	<path fill-rule="evenodd" clip-rule="evenodd" d="M0.407,0h30.91h0.403v0.403v30.91v0.403h-0.403H0.407H0.004v-0.403V0.403V0H0.407
		L0.407,0z M30.914,0.806H0.81V30.91h30.104V0.806L30.914,0.806z"/>
	<path fill-rule="evenodd" clip-rule="evenodd" d="M20.113,18.256v-5.078h1.411v2.297l1.612-2.297h1.532h0.081h1.531l0.685,1.29
		v0.04c0.081,0.161,0.121,0.282,0.161,0.403c0.04-0.121,0.081-0.242,0.161-0.403v-0.04l0.685-1.29h1.612l-1.773,2.741v2.337h-1.37
		v-2.337l-1.733-2.7l-1.854,2.418l2.055,2.62h-1.733l-1.652-2.297v2.297H20.113L20.113,18.256z M16.849,15.556h0.282
		c0.282,0,0.484-0.04,0.645-0.121c0.121-0.121,0.201-0.282,0.201-0.484c0-0.282-0.081-0.443-0.201-0.564
		c-0.121-0.121-0.323-0.161-0.645-0.161h-0.282V15.556L16.849,15.556z M15.56,18.256v-5.078h1.451c0.564,0,0.967,0,1.169,0.04
		c0.242,0.081,0.443,0.161,0.605,0.282c0.161,0.121,0.322,0.322,0.403,0.524c0.121,0.242,0.161,0.484,0.161,0.725
		c0,0.403-0.081,0.725-0.282,0.967c-0.202,0.242-0.484,0.403-0.846,0.484l1.37,2.055h-1.572l-1.169-1.975v1.975H15.56L15.56,18.256z
		 M12.497,13.178h0.887l1.733,5.078h-1.37l-0.363-0.887h-0.887H11.61l-0.363,0.887h-1.37l1.773-5.078H12.497L12.497,13.178z
		 M12.497,16.362h0.685l-0.524-1.693c0-0.041,0-0.121-0.04-0.242c-0.04-0.121-0.081-0.282-0.121-0.443
		c-0.04,0.161-0.081,0.322-0.121,0.443c0,0.121-0.04,0.201-0.04,0.242l-0.524,1.693H12.497L12.497,16.362z M7.862,15.475h0.282
		c0.323,0,0.564-0.081,0.685-0.161c0.161-0.081,0.202-0.242,0.202-0.443c0-0.242-0.04-0.403-0.202-0.484
		c-0.121-0.081-0.363-0.121-0.685-0.121H7.862V15.475L7.862,15.475z M7.862,18.256H6.573v-5.078h1.451c0.564,0,0.967,0,1.209,0.081
		c0.242,0.04,0.403,0.121,0.564,0.282c0.202,0.161,0.363,0.322,0.443,0.564c0.121,0.242,0.161,0.484,0.161,0.806
		c0,0.282-0.041,0.564-0.161,0.806c-0.081,0.202-0.242,0.403-0.443,0.564c-0.121,0.081-0.282,0.161-0.484,0.242
		c-0.202,0.04-0.524,0.04-0.927,0.04H8.144H7.862V18.256L7.862,18.256z M2.905,16.604c0.202,0.242,0.403,0.443,0.605,0.524
		c0.202,0.121,0.403,0.202,0.604,0.202c0.202,0,0.363-0.081,0.484-0.161c0.121-0.08,0.161-0.242,0.161-0.363
		c0-0.201-0.04-0.322-0.161-0.403c-0.081-0.081-0.322-0.202-0.685-0.282c-0.524-0.161-0.846-0.323-1.088-0.524
		c-0.202-0.242-0.282-0.524-0.282-0.886c0-0.524,0.161-0.887,0.484-1.209c0.322-0.323,0.725-0.484,1.249-0.484
		c0.282,0,0.564,0.04,0.806,0.121c0.282,0.08,0.484,0.202,0.725,0.363l-0.443,1.007c-0.161-0.161-0.323-0.242-0.484-0.323
		c-0.161-0.081-0.322-0.081-0.484-0.081c-0.161,0-0.322,0.04-0.403,0.121c-0.121,0.081-0.161,0.161-0.161,0.282
		c0,0.121,0.04,0.242,0.121,0.322c0.121,0.081,0.282,0.161,0.564,0.202c0,0,0,0.04,0.04,0.04c0.564,0.121,0.927,0.323,1.129,0.484
		c0.121,0.121,0.202,0.282,0.282,0.443c0.04,0.202,0.081,0.403,0.081,0.605c0,0.524-0.161,0.967-0.524,1.289
		c-0.363,0.363-0.846,0.524-1.41,0.524c-0.363,0-0.685-0.081-1.007-0.202c-0.282-0.121-0.564-0.322-0.846-0.564L2.905,16.604
		L2.905,16.604z"/>
	<polygon fill-rule="evenodd" clip-rule="evenodd" points="2.14,19.545 15.801,29.5 29.423,19.545 2.14,19.545 	"/>
	<polygon fill-rule="evenodd" clip-rule="evenodd" fill="#ED1C24" points="2.14,11.888 15.801,2.216 29.423,11.888 2.14,11.888 	"/>
</g>
</svg>
